<?xml version="1.0" encoding="UTF-8"?>
<svg version="1.1" xmlns="http://www.w3.org/2000/svg" width="512" height="512">
<path d="M0 0 C5.76351946 2.65223904 11.58181721 5.46895988 15 11 C16.19922818 14.59768455 16.15324455 17.88286885 16.15821838 21.62812805 C16.16315636 22.4133848 16.16809434 23.19864154 16.17318195 24.00769395 C16.18858651 26.65006528 16.19692744 29.29241222 16.20532227 31.93481445 C16.21490261 33.82791355 16.22491279 35.7210105 16.23532104 37.61410522 C16.2624615 42.78059792 16.28344774 47.94709973 16.30332303 53.11362481 C16.32528927 58.5696778 16.3526618 64.02570381 16.37937927 69.48173523 C16.42375124 78.69996913 16.46446238 87.91821326 16.50268555 97.13647461 C16.54150317 106.4958643 16.58294172 115.85523633 16.62768555 125.21459961 C16.63312209 126.35293908 16.63855863 127.49127856 16.64415991 128.66411316 C16.65510769 130.95369104 16.66606177 133.24326888 16.67702222 135.53284669 C16.77157166 155.31601601 16.85370056 175.09918703 16.92120481 194.88246751 C16.96021944 206.26125698 17.01184782 217.63966926 17.10088825 229.0181818 C17.14095146 234.16710884 17.16812998 239.31609121 17.19370842 244.46510887 C17.20751616 246.68003522 17.22654165 248.89493687 17.25146675 251.10976601 C17.28405451 254.02534948 17.29854434 256.9404664 17.30834961 259.85620117 C17.32244055 260.65610411 17.33653149 261.45600704 17.35104942 262.28014946 C17.33934192 269.81763538 15.57844804 277.47618205 11.25 283.75 C10.80140625 284.42546875 10.3528125 285.1009375 9.890625 285.796875 C4.0811518 292.56659171 -3.1045047 296.53856387 -10.875 300.75 C-13.13488154 301.99470229 -15.39399568 303.24079885 -17.65234375 304.48828125 C-18.74659668 305.0910791 -19.84084961 305.69387695 -20.96826172 306.31494141 C-24.82911999 308.46082994 -28.64165027 310.67912488 -32.4375 312.9375 C-39.40724606 317.07393204 -46.41505568 321.14115818 -53.4375 325.1875 C-54.54327393 325.82478027 -55.64904785 326.46206055 -56.78833008 327.11865234 C-60.1919253 329.0796138 -63.59591889 331.03988215 -67 333 C-79.68347618 340.30469788 -92.36249179 347.61598343 -105 355 C-116.54729516 361.74701194 -128.12902027 368.43339318 -139.71777344 375.10888672 C-145.14659938 378.23680146 -150.57322007 381.36853731 -156 384.5 C-162.52233275 388.26363919 -169.04513762 392.02644622 -175.5703125 395.78515625 C-186.06232094 401.83055159 -196.54481676 407.89110219 -207 414 C-218.54729516 420.74701194 -230.12902027 427.43339318 -241.71777344 434.10888672 C-248.21847963 437.85438435 -254.71625032 441.60497265 -261.21435547 445.35498047 C-266.23653702 448.25294889 -271.25927066 451.14994287 -276.28442383 454.04275513 C-278.05045522 455.05947198 -279.81627431 456.07655658 -281.58203125 457.09375 C-283.78734155 458.36400873 -285.99304216 459.63359018 -288.19921875 460.90234375 C-293.79890965 464.12879817 -299.35625157 467.40476799 -304.84985352 470.80932617 C-308.26960842 472.7030635 -311.10839911 473.67463884 -315 473 C-320.85032218 470.56236576 -329.05158962 466.89682076 -332 461 C-332.15451985 459.00142574 -332.24525871 456.99783363 -332.30802917 454.99427795 C-332.34876966 453.69452498 -332.38951014 452.39477201 -332.43148518 451.05563259 C-332.47087633 449.58927132 -332.50955554 448.12289078 -332.54760742 446.65649414 C-332.56842703 445.89679011 -332.58924664 445.13708607 -332.61069715 444.3543607 C-333.24486988 420.74053677 -333.20486801 397.1166556 -333.23828125 373.49609375 C-333.24234291 371.02257847 -333.24646016 368.54906327 -333.25063133 366.07554817 C-333.26953685 354.48496728 -333.28381926 342.89439232 -333.2922433 331.30379909 C-333.3010958 319.3322723 -333.32047503 307.36087336 -333.35668945 295.3894043 C-333.39193638 283.69921818 -333.41328263 272.00911159 -333.41702431 260.31887108 C-333.41936815 254.15977058 -333.42824928 248.00084782 -333.45348549 241.84179497 C-333.47675845 236.07362138 -333.48100253 230.3057431 -333.47072411 224.53753471 C-333.47022915 222.42763281 -333.47653766 220.31771625 -333.49028015 218.20785904 C-333.57897142 203.78355516 -333.1004803 193.25805153 -322.66357422 182.35302734 C-317.93185369 178.17297945 -312.60529038 175.2826775 -307.0625 172.3125 C-305.82404194 171.62985521 -304.58675802 170.94507647 -303.35058594 170.25830078 C-300.81408826 168.85075741 -298.27327372 167.45154638 -295.72900391 166.05810547 C-290.01828431 162.91958246 -284.3865328 159.64428303 -278.75 156.375 C-277.68144775 155.75794189 -276.61289551 155.14088379 -275.51196289 154.50512695 C-267.3376292 149.78450977 -259.18394596 145.02887509 -251.03369141 140.2668457 C-240.47352916 134.1005487 -229.87857454 127.99494961 -219.28222656 121.89111328 C-213.85340058 118.76319852 -208.42680719 115.63141552 -203 112.5 C-200.83334417 111.24998121 -198.6666775 109.99998122 -196.5 108.75 C-195.4275 108.13125 -194.355 107.5125 -193.25 106.875 C-183.5 101.25 -183.5 101.25 -180.24951172 99.37475586 C-178.08442929 98.12564482 -175.91939018 96.87645871 -173.75439453 95.62719727 C-168.31384294 92.48797691 -162.87252784 89.35009437 -157.4296875 86.21484375 C-146.93767906 80.16944841 -136.45518324 74.10889781 -126 68 C-114.45270484 61.25298806 -102.87097973 54.56660682 -91.28222656 47.89111328 C-85.85340058 44.76319852 -80.42680719 41.63141552 -75 38.5 C-72.83334417 37.24998121 -70.6666775 35.99998122 -68.5 34.75 C-67.4275 34.13125 -66.355 33.5125 -65.25 32.875 C-62 31 -58.75 29.125 -55.5 27.25 C-54.42556641 26.63012207 -53.35113281 26.01024414 -52.24414062 25.37158203 C-50.09704864 24.13289998 -47.94991386 22.8942921 -45.80273438 21.65576172 C-40.70411191 18.7146665 -35.60594704 15.77278587 -30.50927734 12.82830811 C-28.08952335 11.43041399 -25.66952737 10.03293911 -23.24951172 8.63549805 C-21.53198948 7.64347676 -19.81481948 6.65084571 -18.09765625 5.65820312 C-16.54884766 4.76391602 -16.54884766 4.76391602 -14.96875 3.8515625 C-14.05544922 3.32385254 -13.14214844 2.79614258 -12.20117188 2.25244141 C-8.04981954 -0.10963019 -4.74706161 -0.92118254 0 0 Z " fill="#E2E6EF" transform="translate(343,10)"/>
<path d="M0 0 C3.53551593 3.47034513 3.34629012 6.42067799 3.53515625 11.23046875 C3.53773438 11.978125 3.5403125 12.72578125 3.54296875 13.49609375 C7.10563409 11.39220694 10.66807179 9.28793496 14.23046875 7.18359375 C15.23787109 6.58869141 16.24527344 5.99378906 17.28320312 5.38085938 C18.25966797 4.80400391 19.23613281 4.22714844 20.2421875 3.6328125 C21.13768311 3.10389404 22.03317871 2.57497559 22.95581055 2.0300293 C24.73411399 0.97566669 26.49665211 -0.10560221 28.24511719 -1.20874023 C30.54296875 -2.50390625 30.54296875 -2.50390625 32.609375 -2.36328125 C41.6157884 1.63956915 48.95120914 9.95892193 53.54296875 18.49609375 C55.69475113 24.50677211 55.84960221 30.04982887 55.84375 36.3984375 C55.84803513 37.43496964 55.85232025 38.47150177 55.85673523 39.53944397 C55.86245857 41.72379834 55.86299357 43.90817176 55.85864258 46.0925293 C55.85548219 49.41944119 55.87896901 52.74546343 55.90429688 56.07226562 C55.90657015 58.2018218 55.90727323 60.33138035 55.90625 62.4609375 C55.91545975 63.44762924 55.92466949 64.43432098 55.93415833 65.45091248 C55.89401832 71.4943359 55.01048611 75.96691381 52.54296875 81.49609375 C42.35409984 80.98222036 32.54901725 79.40143712 22.54296875 77.49609375 C22.62417969 78.18574219 22.70539063 78.87539063 22.7890625 79.5859375 C23.15425195 85.01906218 22.98990568 88.73359861 19.66796875 93.18359375 C9.69811625 104.34744056 -2.83394413 111.0472916 -17.01953125 115.30859375 C-17.66672119 115.50348389 -18.31391113 115.69837402 -18.98071289 115.89916992 C-29.90105847 118.95406625 -40.90634885 119.86353525 -52.20703125 119.80859375 C-53.43276855 119.8029541 -54.65850586 119.79731445 -55.92138672 119.79150391 C-65.38751105 119.66532223 -74.31157625 118.96549972 -83.45703125 116.49609375 C-84.19598633 116.29741699 -84.93494141 116.09874023 -85.69628906 115.89404297 C-102.96631729 111.06465719 -119.16188812 102.84428789 -128.36328125 86.79296875 C-130.17949908 82.97891131 -130.58724377 79.63235965 -130.6340332 75.42724609 C-130.64686844 74.41874603 -130.65970367 73.41024597 -130.67292786 72.3711853 C-130.68031479 71.28576447 -130.68770172 70.20034363 -130.6953125 69.08203125 C-130.70338425 67.95721344 -130.71145599 66.83239563 -130.71977234 65.67349243 C-130.73360038 63.29129573 -130.74432825 60.90907931 -130.75219727 58.52685547 C-130.7637026 56.10036379 -130.78413121 53.67389713 -130.8137207 51.24755859 C-130.8565705 47.73387519 -130.87259263 44.22094413 -130.8828125 40.70703125 C-130.90032059 39.6337558 -130.91782867 38.56048035 -130.93586731 37.4546814 C-130.90437407 26.39475262 -127.57029834 18.74212849 -119.921875 10.80859375 C-89.10793076 -18.10084363 -36.3382362 -15.80815925 0 0 Z " fill="#EC5D71" transform="translate(338.45703125,382.50390625)"/>
<path d="M0 0 C2.99385139 2.91506583 4.84683176 5.60631139 5.12025452 9.87931824 C5.11803391 10.58325211 5.11581329 11.28718597 5.11352539 12.01245117 C5.11344986 12.81305466 5.11337433 13.61365814 5.11329651 14.43852234 C5.10813522 15.29798965 5.10297394 16.15745697 5.09765625 17.04296875 C5.09553383 18.36836418 5.09553383 18.36836418 5.09336853 19.72053528 C5.08777069 22.54289128 5.07521861 25.36516797 5.0625 28.1875 C5.05748472 30.10091031 5.05292186 32.01432187 5.04882812 33.92773438 C5.03780197 38.61852014 5.02053883 43.30924663 5 48 C4.42894531 48.32049316 3.85789062 48.64098633 3.26953125 48.97119141 C-8.81374282 55.75962857 -20.84560648 62.62688908 -32.80712891 69.62768555 C-43.41646789 75.83596803 -54.06628503 81.97328774 -64.71777344 88.10888672 C-70.14659938 91.23680146 -75.57322007 94.36853731 -81 97.5 C-87.52233275 101.26363919 -94.04513762 105.02644622 -100.5703125 108.78515625 C-111.06232094 114.83055159 -121.54481676 120.89110219 -132 127 C-145.73055188 135.02267511 -159.51077966 142.95858259 -173.29101562 150.89550781 C-184.87681766 157.56956312 -196.45553353 164.25464084 -208 171 C-221.73055188 179.02267511 -235.51077966 186.95858259 -249.29101562 194.89550781 C-260.87681897 201.56956387 -272.45543517 208.25480755 -284 215 C-292.59302733 220.01933512 -301.19645195 225.02030804 -309.8125 230 C-311.39514648 230.91652344 -311.39514648 230.91652344 -313.00976562 231.8515625 C-319.62057988 235.66759514 -326.2812852 239.37731808 -333 243 C-333.07458679 237.18337759 -333.12880761 231.36703837 -333.16479492 225.55004883 C-333.17980956 223.57441351 -333.20022751 221.59881111 -333.22631836 219.62329102 C-333.26302572 216.77091305 -333.27979993 213.91897871 -333.29296875 211.06640625 C-333.30845261 210.19415909 -333.32393646 209.32191193 -333.33988953 208.42323303 C-333.34249993 198.74401621 -330.60642808 191.70660221 -324.34667969 184.32568359 C-320.41945097 180.43359238 -315.96634791 177.91836649 -311.125 175.3125 C-308.97905649 174.10957152 -306.83322706 172.90643953 -304.6875 171.703125 C-303.5840625 171.09404297 -302.480625 170.48496094 -301.34375 169.85742188 C-295.89585543 166.83116736 -290.51515591 163.69003067 -285.125 160.5625 C-282.94318494 159.30386095 -280.76089062 158.04605234 -278.578125 156.7890625 C-276.95100586 155.85175293 -276.95100586 155.85175293 -275.29101562 154.89550781 C-273.09700521 153.63183594 -270.90299479 152.36816406 -268.70898438 151.10449219 C-257.12318234 144.43043688 -245.54446647 137.74535916 -234 131 C-220.26944812 122.97732489 -206.48922034 115.04141741 -192.70898438 107.10449219 C-181.12318234 100.43043688 -169.54446647 93.74535916 -158 87 C-146.45270484 80.25298806 -134.87097973 73.56660682 -123.28222656 66.89111328 C-117.85340062 63.76319854 -112.42677993 60.63146269 -107 57.5 C-100.47766725 53.73636081 -93.95486238 49.97355378 -87.4296875 46.21484375 C-76.93767795 40.16944777 -66.45527225 34.1087468 -56 28 C-47.40697267 22.98066488 -38.80354805 17.97969196 -30.1875 13 C-29.13240234 12.38898437 -28.07730469 11.77796875 -26.99023438 11.1484375 C-23.99925834 9.42192368 -21.00229959 7.7067407 -18 6 C-16.9881665 5.42403076 -15.97633301 4.84806152 -14.93383789 4.25463867 C-13.96051514 3.7104126 -12.98719238 3.16618652 -11.984375 2.60546875 C-11.1190918 2.11973389 -10.25380859 1.63399902 -9.36230469 1.13354492 C-5.99575163 -0.48188561 -3.64275024 -0.81776026 0 0 Z " fill="#EC5E72" transform="translate(354,16)"/>
<path d="M0 0 C2.3581543 1.16064453 2.3581543 1.16064453 4.82421875 2.6328125 C6.22341553 3.45954468 6.22341553 3.45954468 7.65087891 4.30297852 C8.65296387 4.90424561 9.65504883 5.5055127 10.6875 6.125 C12.85502084 7.40830891 15.02300565 8.69083442 17.19140625 9.97265625 C18.31305176 10.63797363 19.43469727 11.30329102 20.59033203 11.98876953 C26.07621211 15.22467674 31.60173356 18.39098532 37.125 21.5625 C45.62868252 26.45867597 54.11070871 31.38973657 62.5625 36.375 C63.50303223 36.92873291 64.44356445 37.48246582 65.41259766 38.05297852 C66.69529541 38.81179321 66.69529541 38.81179321 68.00390625 39.5859375 C68.75486572 40.0298584 69.5058252 40.4737793 70.27954102 40.93115234 C72 42 72 42 73 43 C73.09498646 45.43396019 73.12558417 47.83942952 73.11352539 50.27368164 C73.11367142 51.03460617 73.11381744 51.7955307 73.1139679 52.57951355 C73.11326862 55.10642298 73.10547555 57.63325962 73.09765625 60.16015625 C73.09579212 61.9075059 73.0943682 63.65485607 73.09336853 65.40220642 C73.08954293 70.01031934 73.07971229 74.61840095 73.06866455 79.22650146 C73.05845134 83.92508521 73.0538711 88.62367399 73.04882812 93.32226562 C73.03809005 102.54819087 73.02101313 111.77409284 73 121 C72.28733475 121.41053619 71.57466949 121.82107239 70.84040833 122.24404907 C67.52483063 124.15439211 64.20955838 126.06526427 60.89453125 127.9765625 C60.29812143 128.32041615 59.70171162 128.66426979 59.08722878 129.01854324 C52.36288672 132.89616576 45.6424329 136.77973629 38.94921875 140.7109375 C37.88251953 141.33484375 36.81582031 141.95875 35.71679688 142.6015625 C33.612323 143.83358202 31.51097605 145.07095215 29.41210938 146.3125 C27.85266602 147.22128906 27.85266602 147.22128906 26.26171875 148.1484375 C25.36412842 148.67614746 24.46653809 149.20385742 23.54174805 149.74755859 C21 151 21 151 16 152 C12.7 150.02 9.4 148.04 6 146 C5.67 155.9 5.34 165.8 5 176 C6.98 176.66 8.96 177.32 11 178 C12.62775056 178.84485436 14.2293168 179.74206347 15.80078125 180.6875 C16.68805908 181.21666016 17.57533691 181.74582031 18.48950195 182.29101562 C19.42109131 182.85498047 20.35268066 183.41894531 21.3125 184 C23.27037893 185.177839 25.22871812 186.35491324 27.1875 187.53125 C28.16074219 188.11648438 29.13398438 188.70171875 30.13671875 189.3046875 C32.79900507 190.88099345 35.48244302 192.40483853 38.1875 193.90625 C39.36445435 194.56753906 39.36445435 194.56753906 40.56518555 195.2421875 C42.03080018 196.06248588 43.50341549 196.87043574 44.98364258 197.6640625 C47.97898348 199.35980418 49.75173937 200.37001532 51.0390625 203.63671875 C50.98925991 206.6497754 50.01319061 207.82575414 48 210 C43.73137037 209.47078297 40.6912609 208.53942641 37.0078125 206.33203125 C36.06808594 205.77580078 35.12835938 205.21957031 34.16015625 204.64648438 C33.15855469 204.04126953 32.15695312 203.43605469 31.125 202.8125 C28.96108408 201.52709695 26.7970174 200.24194768 24.6328125 198.95703125 C23.52969727 198.29783691 22.42658203 197.63864258 21.29003906 196.95947266 C16.21449991 193.93659663 11.10683632 190.96958067 6 188 C4.00243875 186.83491898 2.00504344 185.6695534 0.0078125 184.50390625 C-5.02898272 181.56563903 -10.06766559 178.63062607 -15.10717773 175.69702148 C-17.10282584 174.53347194 -19.097154 173.36765526 -21.09008789 172.19946289 C-26.15949293 169.22823409 -31.24398345 166.29080304 -36.36328125 163.40625 C-37.38341309 162.82367432 -38.40354492 162.24109863 -39.45458984 161.64086914 C-41.39920796 160.53040912 -43.35110547 159.43257191 -45.31103516 158.34936523 C-46.60920166 157.6021521 -46.60920166 157.6021521 -47.93359375 156.83984375 C-48.69728271 156.41050537 -49.46097168 155.98116699 -50.24780273 155.53881836 C-52 154 -52 154 -52.84399414 151.46704102 C-53 149 -53 149 -51.5625 146.6875 C-51.046875 146.130625 -50.53125 145.57375 -50 145 C-44.49805693 145.49474837 -40.89443976 147.53356209 -36.3125 150.375 C-34.82085539 151.27694012 -33.32864446 152.17794416 -31.8359375 153.078125 C-30.66562988 153.7887207 -30.66562988 153.7887207 -29.47167969 154.51367188 C-25.15950517 157.10676932 -20.79673524 159.61212722 -16.4375 162.125 C-13.653125 163.73375 -10.86875 165.3425 -8 167 C-8 157.43 -8 147.86 -8 138 C-9.76601563 136.99582031 -11.53203125 135.99164063 -13.3515625 134.95703125 C-25.17141523 128.22869902 -36.97567582 121.47774333 -48.6875 114.5625 C-50.08379639 113.73939331 -50.08379639 113.73939331 -51.50830078 112.8996582 C-57.87184927 109.12815073 -57.87184927 109.12815073 -59 108 C-59.09498646 105.56603981 -59.12558417 103.16057048 -59.11352539 100.72631836 C-59.11367142 99.96539383 -59.11381744 99.2044693 -59.1139679 98.42048645 C-59.11326862 95.89357702 -59.10547555 93.36674038 -59.09765625 90.83984375 C-59.09579212 89.0924941 -59.0943682 87.34514393 -59.09336853 85.59779358 C-59.08954293 80.98968066 -59.07971229 76.38159905 -59.06866455 71.77349854 C-59.05845134 67.07491479 -59.0538711 62.37632601 -59.04882812 57.67773438 C-59.03809005 48.45180913 -59.02101313 39.22590716 -59 30 C-58.2231485 29.55687973 -57.446297 29.11375946 -56.64590454 28.6572113 C-53.69217375 26.97199191 -50.73876439 25.28621169 -47.78555298 23.6000824 C-46.52074293 22.87808508 -45.25581449 22.15629511 -43.99075317 21.43473816 C-32.27489403 14.75199439 -20.61775999 7.97270563 -8.98583984 1.14477539 C-5.3821287 -0.93265288 -4.07252815 -1.10626551 0 0 Z " fill="#4B5570" transform="translate(429,207)"/>
<path d="M0 0 C3.57788516 0.70607221 5.83031101 2.67040484 8.05859375 5.40625 C11.65317382 10.98001982 12.73061933 16.10845481 13.0703125 22.6484375 C13.12886917 23.49802032 13.18742584 24.34760315 13.24775696 25.22293091 C13.42999223 27.90827073 13.58901907 30.59433201 13.74609375 33.28125 C13.91839844 35.98910111 14.09551299 38.69655927 14.27656555 41.40383911 C14.38729238 43.08173251 14.49213624 44.76002665 14.59049988 46.43869019 C14.76112439 50.55527028 14.76112439 50.55527028 16.05859375 54.40625 C17.70859375 53.74625 19.35859375 53.08625 21.05859375 52.40625 C20.86303711 54.2097168 20.86303711 54.2097168 20.05859375 56.40625 C17.97094727 57.99926758 17.97094727 57.99926758 15.1875 59.55078125 C14.15173828 60.13730469 13.11597656 60.72382813 12.04882812 61.328125 C10.91767578 61.95203125 9.78652344 62.5759375 8.62109375 63.21875 C7.43998404 63.8827447 6.25965655 64.54813253 5.08007812 65.21484375 C2.62686448 66.59999666 0.17037975 67.97906898 -2.28857422 69.35400391 C-7.87160117 72.48226057 -13.40383571 75.69846195 -18.94140625 78.90625 C-21.10783129 80.15666873 -23.27449889 81.4066673 -25.44140625 82.65625 C-26.51390625 83.275 -27.58640625 83.89375 -28.69140625 84.53125 C-142.44140625 150.15625 -142.44140625 150.15625 -145.69360352 152.0324707 C-147.8530002 153.2783077 -150.01234294 154.52423818 -152.17163086 155.77026367 C-157.69908222 158.95973953 -163.22755746 162.14741885 -168.7578125 165.33203125 C-171.00653208 166.62756657 -173.2552303 167.92313896 -175.50390625 169.21875 C-176.58220703 169.83951416 -177.66050781 170.46027832 -178.77148438 171.09985352 C-183.62382358 173.8974137 -188.46709931 176.70745151 -193.28125 179.5703125 C-194.07781006 180.04364014 -194.87437012 180.51696777 -195.69506836 181.00463867 C-197.14754565 181.8705052 -198.59774743 182.74020536 -200.04516602 183.61450195 C-204.72337682 186.40625 -204.72337682 186.40625 -206.94140625 186.40625 C-206.94140625 134.92625 -206.94140625 83.44625 -206.94140625 30.40625 C-205.95140625 30.07625 -204.96140625 29.74625 -203.94140625 29.40625 C-203.61140625 35.67625 -203.28140625 41.94625 -202.94140625 48.40625 C-200.96140625 47.41625 -198.98140625 46.42625 -196.94140625 45.40625 C-196.94140625 46.72625 -196.94140625 48.04625 -196.94140625 49.40625 C-197.91078125 49.674375 -198.88015625 49.9425 -199.87890625 50.21875 C-203.1671244 52.05908789 -203.1671244 52.05908789 -203.5625 55.0546875 C-203.79581846 57.84732996 -203.93189207 60.60432297 -203.94140625 63.40625 C-203.15765625 62.91125 -202.37390625 62.41625 -201.56640625 61.90625 C-198.94140625 60.40625 -198.94140625 60.40625 -196.94140625 60.40625 C-196.94140625 61.39625 -196.94140625 62.38625 -196.94140625 63.40625 C-201.16362847 66.40625 -201.16362847 66.40625 -203.94140625 66.40625 C-203.61140625 70.03625 -203.28140625 73.66625 -202.94140625 77.40625 C-199.97140625 76.41625 -199.97140625 76.41625 -196.94140625 75.40625 C-196.94140625 76.39625 -196.94140625 77.38625 -196.94140625 78.40625 C-198.39546875 78.8084375 -198.39546875 78.8084375 -199.87890625 79.21875 C-203.1671244 81.05908789 -203.1671244 81.05908789 -203.5625 84.0546875 C-203.79581846 86.84732996 -203.93189207 89.60432297 -203.94140625 92.40625 C-203.15765625 91.91125 -202.37390625 91.41625 -201.56640625 90.90625 C-198.94140625 89.40625 -198.94140625 89.40625 -196.94140625 89.40625 C-197.12890625 91.21875 -197.12890625 91.21875 -197.94140625 93.40625 C-198.76640625 93.756875 -199.59140625 94.1075 -200.44140625 94.46875 C-203.18780796 96.16488718 -203.18780796 96.16488718 -203.4921875 99.0390625 C-203.73156602 101.83300289 -203.88905148 104.60289008 -203.94140625 107.40625 C-203.15765625 106.91125 -202.37390625 106.41625 -201.56640625 105.90625 C-198.94140625 104.40625 -198.94140625 104.40625 -196.94140625 104.40625 C-196.94140625 105.39625 -196.94140625 106.38625 -196.94140625 107.40625 C-201.16362847 110.40625 -201.16362847 110.40625 -203.94140625 110.40625 C-203.94140625 114.03625 -203.94140625 117.66625 -203.94140625 121.40625 C-201.63140625 120.41625 -199.32140625 119.42625 -196.94140625 118.40625 C-197.12890625 120.21875 -197.12890625 120.21875 -197.94140625 122.40625 C-198.76640625 122.756875 -199.59140625 123.1075 -200.44140625 123.46875 C-203.18780796 125.16488718 -203.18780796 125.16488718 -203.4921875 128.0390625 C-203.73156602 130.83300289 -203.88905148 133.60289008 -203.94140625 136.40625 C-203.15765625 135.91125 -202.37390625 135.41625 -201.56640625 134.90625 C-198.94140625 133.40625 -198.94140625 133.40625 -196.94140625 133.40625 C-197.06640625 135.28125 -197.06640625 135.28125 -197.94140625 137.40625 C-201.00390625 138.65625 -201.00390625 138.65625 -203.94140625 139.40625 C-203.61140625 143.03625 -203.28140625 146.66625 -202.94140625 150.40625 C-200.96140625 149.41625 -198.98140625 148.42625 -196.94140625 147.40625 C-197.12890625 149.21875 -197.12890625 149.21875 -197.94140625 151.40625 C-198.76640625 151.756875 -199.59140625 152.1075 -200.44140625 152.46875 C-203.18780796 154.16488718 -203.18780796 154.16488718 -203.4921875 157.0390625 C-203.73156602 159.83300289 -203.88905148 162.60289008 -203.94140625 165.40625 C-201.63140625 164.41625 -199.32140625 163.42625 -196.94140625 162.40625 C-197.25390625 164.28125 -197.25390625 164.28125 -197.94140625 166.40625 C-200.94140625 168.40625 -200.94140625 168.40625 -203.94140625 168.40625 C-203.94140625 172.69625 -203.94140625 176.98625 -203.94140625 181.40625 C-197.00684514 179.56403831 -190.33173239 177.38132575 -185.94140625 171.40625 C-183.49105982 162.48606526 -184.03583671 153.15089214 -184.16624451 143.97779846 C-184.15525451 138.35984141 -183.03294252 135.03491883 -179.94140625 130.40625 C-179.38453125 129.54 -178.82765625 128.67375 -178.25390625 127.78125 C-174.9524881 124.39060434 -171.24458014 121.42146876 -166.94140625 119.40625 C-164.66015625 119.7421875 -164.66015625 119.7421875 -162.94140625 120.40625 C-162.28140625 122.71625 -161.62140625 125.02625 -160.94140625 127.40625 C-148.12931205 123.93178378 -137.03054944 117.06837131 -130.25 105.52734375 C-126.53587538 98.48961767 -123.69769473 91.23936457 -120.94140625 83.78125 C-116.55911747 72.0022778 -111.97590232 60.51650627 -100.94140625 53.40625 C-98.34722401 52.48667047 -96.73762993 52.34799534 -93.94140625 52.40625 C-92.94140625 53.40625 -92.94140625 53.40625 -92.82788086 55.53930664 C-92.83573608 56.91397095 -92.83573608 56.91397095 -92.84375 58.31640625 C-92.84858398 59.80043945 -92.84858398 59.80043945 -92.85351562 61.31445312 C-92.86608398 62.87583008 -92.86608398 62.87583008 -92.87890625 64.46875 C-92.88341797 65.51353516 -92.88792969 66.55832031 -92.89257812 67.63476562 C-92.90440712 70.2253166 -92.92088936 72.81575559 -92.94140625 75.40625 C-88.58299714 74.91785336 -85.08095557 74.32743058 -81.25390625 72.15625 C-80.16529297 71.56070313 -80.16529297 71.56070313 -79.0546875 70.953125 C-73.91666132 67.1922038 -71.52522088 61.87981159 -68.87890625 56.28125 C-68.20632437 54.85921973 -67.52812015 53.43983221 -66.84375 52.0234375 C-66.54976318 51.40065918 -66.25577637 50.77788086 -65.95288086 50.13623047 C-64.81423096 48.18873512 -63.69599756 46.82706799 -61.94140625 45.40625 C-59.25390625 45.71875 -59.25390625 45.71875 -56.94140625 46.40625 C-55.95140625 49.37625 -55.95140625 49.37625 -54.94140625 52.40625 C-46.51739592 53.11457519 -40.01909699 47.56473249 -33.63671875 42.62109375 C-25.89633186 35.54905352 -21.25389283 25.61138773 -16.25390625 16.5390625 C-15.8057959 15.72679199 -15.35768555 14.91452148 -14.89599609 14.07763672 C-14.02516088 12.49171244 -13.16064825 10.90229611 -12.30322266 9.30908203 C-11.90796387 8.58317871 -11.51270508 7.85727539 -11.10546875 7.109375 C-10.58654053 6.14499512 -10.58654053 6.14499512 -10.05712891 5.16113281 C-7.32658812 0.86635662 -5.27619319 -0.23234612 0 0 Z " fill="#FDDC94" transform="translate(311.94140625,222.59375)"/>
<path d="M0 0 C5.21266148 0.67058252 7.14814785 2.55453084 10.36328125 6.55078125 C21.97714174 23.92999491 19.57255125 52.35692058 20.1875 72.3125 C20.26923948 74.66344443 20.3519188 77.01435637 20.43554688 79.36523438 C20.77623005 89.24791839 21.05799423 99.11043029 21 109 C20.67 109 20.34 109 20 109 C19.93006836 108.07251953 19.86013672 107.14503906 19.78808594 106.18945312 C19.51801852 102.71418038 19.232955 99.24079235 18.93798828 95.76757812 C18.81388997 94.27066242 18.69560556 92.77325193 18.58349609 91.27539062 C17.61543695 77.85740752 17.61543695 77.85740752 10.75 66.5 C6.7433445 64.31455155 4.54323934 64.35096581 0 65 C-3.97468503 69.01451153 -6.23171471 74.0731565 -8.75 79.0625 C-16.89045286 94.79181547 -25.90011712 109.82312608 -43 117 C-46.36328125 117.18359375 -46.36328125 117.18359375 -49 117 C-49.99 114.69 -50.98 112.38 -52 110 C-54.38833357 110.07098583 -54.38833357 110.07098583 -57 111 C-58.99561257 113.45789608 -58.99561257 113.45789608 -60.5625 116.5625 C-61.160625 117.64789063 -61.75875 118.73328125 -62.375 119.8515625 C-63.66925331 122.35917829 -64.8842984 124.87491151 -66.0625 127.4375 C-69.21769756 133.86771274 -75.47070477 137.52800345 -82 140 C-84.9375 140.3125 -84.9375 140.3125 -87 140 C-88 139 -88 139 -88.11352539 136.86694336 C-88.10567017 135.49227905 -88.10567017 135.49227905 -88.09765625 134.08984375 C-88.09282227 132.60581055 -88.09282227 132.60581055 -88.08789062 131.09179688 C-88.07532227 129.53041992 -88.07532227 129.53041992 -88.0625 127.9375 C-88.05798828 126.89271484 -88.05347656 125.84792969 -88.04882812 124.77148438 C-88.03699913 122.1809334 -88.02051689 119.59049441 -88 117 C-95.20311567 117.7350118 -98.33402948 119.58783381 -103 125 C-109.70463628 134.23749887 -113.44886741 144.81483728 -117.23583984 155.49731445 C-122.66504441 170.44512237 -130.72942265 180.89304688 -144.55859375 188.87890625 C-148.10576635 190.50776791 -151.11655871 190.85616884 -155 191 C-155.99 188.69 -156.98 186.38 -158 184 C-163.84973027 184.53179366 -168.05377786 187.66719949 -171.7109375 192.05078125 C-175.14566065 196.90128053 -176.93895069 201.16422878 -178 207 C-178.33 207 -178.66 207 -179 207 C-179.05013226 202.39593013 -179.0860587 197.79202555 -179.10986328 193.18774414 C-179.11980628 191.62749457 -179.13336547 190.06726304 -179.15087891 188.50708008 C-179.3332158 171.82325435 -178.91833272 154.967146 -167 142 C-163.5647952 139.70986347 -162.014669 139.82157027 -158 140 C-156.06757715 143.34520258 -155.4536147 146.44767482 -154.875 150.25 C-154.70742187 151.32765625 -154.53984375 152.4053125 -154.3671875 153.515625 C-154.24601562 154.33546875 -154.12484375 155.1553125 -154 156 C-145.48137669 154.94769947 -136.85606813 150.26463102 -131 144 C-126.19665295 136.18397432 -123.36253237 127.80822616 -121 119 C-120.773125 118.15969238 -120.54625 117.31938477 -120.3125 116.45361328 C-117.87327927 107.36846887 -115.47322722 98.28114198 -113.46142578 89.09082031 C-110.52746672 75.79641534 -106.28352092 62.28352092 -96.4375 52.4375 C-93.64539073 50.79087146 -92.18322864 50.39776756 -89 51 C-86.38699467 54.919508 -86.78408939 58.18226625 -86.875 62.71875 C-86.88257324 63.57303589 -86.89014648 64.42732178 -86.89794922 65.30749512 C-86.93067733 68.9638592 -86.98699407 72.61977753 -87.04101562 76.27587891 C-87.07710766 78.94431505 -87.10134313 81.61267939 -87.125 84.28125 C-87.14159668 85.10943237 -87.15819336 85.93761475 -87.17529297 86.79089355 C-87.22245813 91.68726658 -87.22245813 91.68726658 -85 96 C-79.49431685 95.58707376 -75.1839276 93.53269793 -71 90 C-68.74362897 86.60365698 -67.31069919 83.35578987 -66.09765625 79.47265625 C-65.76443359 78.43302734 -65.43121094 77.39339844 -65.08789062 76.32226562 C-64.40576627 74.15375982 -63.72606739 71.98448954 -63.04882812 69.81445312 C-61.27062562 64.28112548 -59.58062497 59.60594935 -56 55 C-54.02 55.495 -54.02 55.495 -52 56 C-50.66666667 61.33333333 -49.33333333 66.66666667 -48 72 C-41.51504708 73.02393994 -37.08361956 69.56535735 -32 66 C-25.13911694 60.35882949 -21.66790646 51.73795804 -18.3125 43.6875 C-17.98217773 42.9042334 -17.65185547 42.1209668 -17.31152344 41.31396484 C-13.6675657 32.49343371 -10.55772074 23.47041078 -7.5012207 14.43237305 C-6.90506958 12.70627808 -6.90506958 12.70627808 -6.296875 10.9453125 C-5.77625488 9.40641357 -5.77625488 9.40641357 -5.24511719 7.83642578 C-3.89397708 4.75847564 -2.20170335 2.52425695 0 0 Z " fill="#5994FA" transform="translate(306,159)"/>
<path d="M0 0 C1.50152225 0.26944102 3.00390668 0.53411778 4.50708008 0.79418945 C7.50655956 1.32034918 10.49926702 1.87208412 13.48925781 2.44970703 C18.27105986 3.3710402 23.07063895 4.16657723 27.87695312 4.94897461 C30.77207515 5.42072861 33.66332384 5.91206284 36.5546875 6.40625 C42.33758701 7.37758801 48.1361552 8.15170181 53.95703125 8.85546875 C56.6875 9.25 56.6875 9.25 59.6875 10.25 C59.86153212 16.06649755 59.98802934 21.88145546 60.07202148 27.69995117 C60.10705952 29.6758059 60.15470654 31.65148129 60.21557617 33.62670898 C60.77218302 52.16312013 60.77218302 52.16312013 56.4453125 57.83984375 C54.51245117 59.74536133 54.51245117 59.74536133 52.6875 61.25 C51.90246094 62.03632813 51.11742187 62.82265625 50.30859375 63.6328125 C41.19016552 70.90798064 31.23711112 75.7244596 20.125 79.0625 C19.47781006 79.25739014 18.83062012 79.45228027 18.16381836 79.65307617 C7.24347278 82.7079725 -3.7618176 83.6174415 -15.0625 83.5625 C-16.2882373 83.55686035 -17.51397461 83.5512207 -18.77685547 83.54541016 C-33.47007523 83.34955227 -46.52675641 80.62618822 -60.38671875 75.84765625 C-61.00119873 75.63633057 -61.61567871 75.42500488 -62.2487793 75.20727539 C-65.36101732 73.76363582 -67.69624062 72.52671195 -70.3125 70.25 C-71.28035146 67.3173082 -71.31911751 64.46203411 -71.35546875 61.390625 C-71.37781082 60.52741638 -71.40015289 59.66420776 -71.423172 58.77484131 C-71.45788979 56.94941249 -71.47619333 55.12360794 -71.47924805 53.29785156 C-71.49986908 50.51765156 -71.62143242 47.75368887 -71.74804688 44.9765625 C-72.03697195 32.16991887 -72.03697195 32.16991887 -67.82666016 27.48242188 C-65.00858128 25.7301686 -62.23928883 24.31108111 -59.17080688 23.0526123 C-56.09077691 21.72233151 -53.25436962 19.95975195 -50.375 18.25 C-49.20224853 17.58029877 -48.02775617 16.9136371 -46.8515625 16.25 C-46.26793945 15.92 -45.68431641 15.59 -45.08300781 15.25 C-43.90266927 14.58333333 -42.72233073 13.91666667 -41.54199219 13.25 C-40.36392924 12.58388379 -39.1866244 11.91642501 -38.01008606 11.24761963 C-36.83876026 10.58371027 -35.66450231 9.92494708 -34.48735046 9.27142334 C-31.55651727 7.62484018 -28.83009988 5.89638977 -26.11645508 3.90722656 C-16.95080324 -2.66830173 -10.43576959 -2.13866613 0 0 Z " fill="#5793FA" transform="translate(301.3125,418.75)"/>
<path d="M0 0 C3.17790781 1.40476296 6.08693549 3.11190264 9 5 C9 5.33 9 5.66 9 6 C8.472854 6.14912842 7.94570801 6.29825684 7.40258789 6.4519043 C0.89494674 8.43926776 -4.69868162 11.39825348 -10.5625 14.8125 C-11.55918701 15.38436035 -12.55587402 15.9562207 -13.58276367 16.54541016 C-16.72757087 18.35390189 -19.86474369 20.17500734 -23 22 C-23.98548828 22.57250488 -24.97097656 23.14500977 -25.98632812 23.73486328 C-30.94225469 26.61592837 -35.89257547 29.50644016 -40.83984375 32.40234375 C-47.17086977 36.10512968 -53.52063453 39.7749441 -59.875 43.4375 C-61.49281372 44.37009644 -61.49281372 44.37009644 -63.14331055 45.3215332 C-67.52545836 47.84692169 -71.90825037 50.37119109 -76.29101562 52.89550781 C-87.87681766 59.56956312 -99.45553353 66.25464084 -111 73 C-122.54729516 79.74701194 -134.12902027 86.43339318 -145.71777344 93.10888672 C-151.14659938 96.23680146 -156.57322007 99.36853731 -162 102.5 C-168.52233275 106.26363919 -175.04513762 110.02644622 -181.5703125 113.78515625 C-192.06232094 119.83055159 -202.54481676 125.89110219 -213 132 C-226.73055188 140.02267511 -240.51077966 147.95858259 -254.29101562 155.89550781 C-266.18331937 162.74612485 -278.07104724 169.604679 -289.9375 176.5 C-290.88963379 177.05115479 -291.84176758 177.60230957 -292.82275391 178.17016602 C-295.5589578 179.76326726 -298.28289044 181.37455797 -301 183 C-301.98685791 183.58910156 -302.97371582 184.17820313 -303.99047852 184.78515625 C-304.96299561 185.38199219 -305.9355127 185.97882813 -306.9375 186.59375 C-307.81148438 187.12677734 -308.68546875 187.65980469 -309.5859375 188.20898438 C-315.78635779 192.80913438 -319.52648707 199.49570169 -321 207 C-321.27887982 210.5211054 -321.2701151 214.0274143 -321.25396729 217.55812073 C-321.25708727 218.60934126 -321.26020725 219.6605618 -321.26342177 220.7436375 C-321.27138727 224.25956894 -321.26508369 227.7753271 -321.25878906 231.29125977 C-321.26149954 233.81454571 -321.2650608 236.33783085 -321.26940918 238.8611145 C-321.27758142 244.99904224 -321.27638634 251.136906 -321.2705839 257.27483458 C-321.26606334 262.26365558 -321.26545621 267.25246287 -321.26763153 272.24128532 C-321.267938 272.9518724 -321.26824446 273.66245947 -321.26856022 274.39457948 C-321.26919968 275.83820336 -321.2698481 277.28182723 -321.2705054 278.7254511 C-321.27620525 292.25465199 -321.269656 305.78382575 -321.25890467 319.31302219 C-321.24996754 330.91857459 -321.25152319 342.52408699 -321.26074219 354.12963867 C-321.27144758 367.61266311 -321.27565799 381.0956638 -321.26951766 394.5786919 C-321.26888057 396.01663808 -321.26825183 397.45458426 -321.26763153 398.89253044 C-321.2671687 399.95373117 -321.2671687 399.95373117 -321.26669653 401.0363703 C-321.26497054 406.01899411 -321.26788258 411.00160284 -321.27259064 415.98422432 C-321.2787886 422.69092532 -321.27436976 429.39753908 -321.26280212 436.1042366 C-321.26015489 438.56732113 -321.26092171 441.03041202 -321.26532745 443.49349403 C-321.27078163 446.85203665 -321.26395008 450.21033586 -321.25396729 453.56886292 C-321.25842873 454.54658474 -321.26289017 455.52430657 -321.26748681 456.53165632 C-321.23921707 461.42547307 -320.92421382 465.40896894 -319 470 C-324.34367218 468.11399805 -328.8145104 465.7782344 -332 461 C-332.31506634 458.27972507 -332.31506634 458.27972507 -332.40568542 454.8966217 C-332.44320325 453.60009139 -332.48072107 452.30356108 -332.5193758 450.96774197 C-332.55028796 449.50984004 -332.58050424 448.05192323 -332.61010742 446.59399414 C-332.64774857 445.03837574 -332.68551651 443.4827604 -332.72339916 441.92714787 C-333.2410668 419.12181835 -333.20601476 396.30599363 -333.23828125 373.49609375 C-333.24234291 371.02257847 -333.24646016 368.54906327 -333.25063133 366.07554817 C-333.26953685 354.48496728 -333.28381926 342.89439232 -333.2922433 331.30379909 C-333.3010958 319.3322723 -333.32047503 307.36087336 -333.35668945 295.3894043 C-333.39193638 283.69921818 -333.41328263 272.00911159 -333.41702431 260.31887108 C-333.41936815 254.15977058 -333.42824928 248.00084782 -333.45348549 241.84179497 C-333.47675845 236.07362138 -333.48100253 230.3057431 -333.47072411 224.53753471 C-333.47022915 222.42763281 -333.47653766 220.31771625 -333.49028015 218.20785904 C-333.57897142 203.78355516 -333.1004803 193.25805153 -322.66357422 182.35302734 C-317.93185369 178.17297945 -312.60529038 175.2826775 -307.0625 172.3125 C-305.82404194 171.62985521 -304.58675802 170.94507647 -303.35058594 170.25830078 C-300.81408826 168.85075741 -298.27327372 167.45154638 -295.72900391 166.05810547 C-290.01828431 162.91958246 -284.3865328 159.64428303 -278.75 156.375 C-277.68144775 155.75794189 -276.61289551 155.14088379 -275.51196289 154.50512695 C-267.3376292 149.78450977 -259.18394596 145.02887509 -251.03369141 140.2668457 C-240.47352916 134.1005487 -229.87857454 127.99494961 -219.28222656 121.89111328 C-213.85340058 118.76319852 -208.42680719 115.63141552 -203 112.5 C-200.83334417 111.24998121 -198.6666775 109.99998122 -196.5 108.75 C-195.4275 108.13125 -194.355 107.5125 -193.25 106.875 C-183.5 101.25 -183.5 101.25 -180.24951172 99.37475586 C-178.08442929 98.12564482 -175.91939018 96.87645871 -173.75439453 95.62719727 C-168.31384294 92.48797691 -162.87252784 89.35009437 -157.4296875 86.21484375 C-146.93767906 80.16944841 -136.45518324 74.10889781 -126 68 C-114.45270484 61.25298806 -102.87097973 54.56660682 -91.28222656 47.89111328 C-85.85340058 44.76319852 -80.42680719 41.63141552 -75 38.5 C-72.83334417 37.24998121 -70.6666775 35.99998122 -68.5 34.75 C-67.4275 34.13125 -66.355 33.5125 -65.25 32.875 C-62 31 -58.75 29.125 -55.5 27.25 C-54.42556641 26.63012207 -53.35113281 26.01024414 -52.24414062 25.37158203 C-50.09704864 24.13289998 -47.94991386 22.8942921 -45.80273438 21.65576172 C-40.70411191 18.7146665 -35.60594704 15.77278587 -30.50927734 12.82830811 C-28.08952335 11.43041399 -25.66952737 10.03293911 -23.24951172 8.63549805 C-21.53198948 7.64347676 -19.81481948 6.65084571 -18.09765625 5.65820312 C-16.54884766 4.76391602 -16.54884766 4.76391602 -14.96875 3.8515625 C-14.05544922 3.32385254 -13.14214844 2.79614258 -12.20117188 2.25244141 C-8.08762284 -0.08812054 -4.71097482 -0.7492921 0 0 Z " fill="#B4BDD6" transform="translate(343,10)"/>
<path d="M0 0 C2.3581543 1.16064453 2.3581543 1.16064453 4.82421875 2.6328125 C6.22341553 3.45954468 6.22341553 3.45954468 7.65087891 4.30297852 C8.65296387 4.90424561 9.65504883 5.5055127 10.6875 6.125 C12.85502084 7.40830891 15.02300565 8.69083442 17.19140625 9.97265625 C18.31305176 10.63797363 19.43469727 11.30329102 20.59033203 11.98876953 C26.07621211 15.22467674 31.60173356 18.39098532 37.125 21.5625 C45.62868252 26.45867597 54.11070871 31.38973657 62.5625 36.375 C63.50303223 36.92873291 64.44356445 37.48246582 65.41259766 38.05297852 C66.69529541 38.81179321 66.69529541 38.81179321 68.00390625 39.5859375 C68.75486572 40.0298584 69.5058252 40.4737793 70.27954102 40.93115234 C72 42 72 42 73 43 C73.08861992 45.8116338 73.11522355 48.59858255 73.09765625 51.41015625 C73.09553383 52.67320839 73.09553383 52.67320839 73.09336853 53.96177673 C73.08775263 56.66205335 73.07519748 59.36224828 73.0625 62.0625 C73.05748705 63.88867068 73.05292379 65.71484266 73.04882812 67.54101562 C73.03777804 72.02737542 73.02050279 76.51367384 73 81 C71.93193115 81.60920288 71.93193115 81.60920288 70.84228516 82.23071289 C68.06628323 83.81449457 65.29054457 85.39873629 62.51504517 86.98339844 C61.25742563 87.70142318 59.99975574 88.41935973 58.74203491 89.13720703 C51.61276008 93.20695918 44.49012546 97.28757827 37.38671875 101.40234375 C36.78589478 101.75015396 36.1850708 102.09796417 35.56604004 102.45631409 C32.68056114 104.12700637 29.79657191 105.80014871 26.91455078 107.47680664 C25.88700684 108.07227295 24.85946289 108.66773926 23.80078125 109.28125 C22.89497314 109.80783203 21.98916504 110.33441406 21.0559082 110.87695312 C19 112 19 112 18 112 C18.10586426 110.9577124 18.21172852 109.9154248 18.32080078 108.84155273 C20.60620856 89.61351468 20.60620856 89.61351468 14.81982422 72.01708984 C8.85668514 67.07891473 1.8173848 64.32098723 -5.33837891 61.52490234 C-11.26326458 59.05745096 -16.63503691 55.73848792 -22.125 52.4375 C-24.25810918 51.2017375 -26.39352941 49.96995555 -28.53125 48.7421875 C-38.70726497 42.86209094 -48.85477887 36.93303156 -59 31 C-54.34564403 26.90416674 -49.08228337 24.10948302 -43.6875 21.125 C-33.9075165 15.66103959 -24.2077881 10.07295373 -14.54370117 4.40673828 C-13.58439697 3.8445459 -12.62509277 3.28235352 -11.63671875 2.703125 C-10.78811279 2.20458008 -9.93950684 1.70603516 -9.06518555 1.19238281 C-5.42026998 -0.9120938 -4.12004719 -1.11917363 0 0 Z " fill="#7AB0FE" transform="translate(429,207)"/>
<path d="M0 0 C4.67524938 1.47009175 8.76039427 4.24957458 12.91894531 6.78735352 C15.03948894 8.05390002 17.16060465 9.3194891 19.28222656 10.58422852 C20.38775879 11.24745117 21.49329102 11.91067383 22.63232422 12.59399414 C28.00141914 15.8026698 33.42810324 18.91225137 38.85116577 22.02850342 C40.59428948 23.03036693 42.3364929 24.03381117 44.07836914 25.0378418 C46.7539801 26.58006699 49.43002979 28.1215252 52.10644531 29.66235352 C50.79241352 33.60444889 49.31787879 33.96292884 45.72753906 35.96313477 C44.58905518 36.6012207 43.45057129 37.23930664 42.27758789 37.89672852 C41.66847565 38.23381836 41.0593634 38.5709082 40.43179321 38.91821289 C38.52568509 39.98507388 36.64061366 41.08270275 34.75756836 42.18969727 C28.60299344 45.77765543 22.65402136 48.95702587 15.94238281 51.42407227 C6.19796516 55.26092645 6.19796516 55.26092645 -0.89355469 62.66235352 C-4.68932292 75.2165577 -2.97258066 89.78512637 -1.89355469 102.66235352 C-11.73795617 97.10939596 -20.98741493 90.18833001 -24.45085144 78.83560181 C-24.95155297 76.37763758 -25.04264214 74.10227014 -25.07055664 71.59350586 C-25.08339188 70.5850058 -25.09622711 69.57650574 -25.10945129 68.53744507 C-25.11683823 67.45202423 -25.12422516 66.36660339 -25.13183594 65.24829102 C-25.13990768 64.12347321 -25.14797943 62.9986554 -25.15629578 61.8397522 C-25.17012381 59.45755549 -25.18085169 57.07533908 -25.1887207 54.69311523 C-25.20022604 52.26662356 -25.22065465 49.8401569 -25.25024414 47.41381836 C-25.29309394 43.90013495 -25.30911607 40.3872039 -25.31933594 36.87329102 C-25.33684402 35.80001556 -25.35435211 34.72674011 -25.37239075 33.62094116 C-25.34049238 22.41873891 -21.9260978 14.89610119 -14.19433594 6.87329102 C-5.93297287 -1.06547214 -5.93297287 -1.06547214 0 0 Z " fill="#96D596" transform="translate(232.8935546875,386.337646484375)"/>
<path d="M0 0 C0.68141556 0.10583908 1.36283112 0.21167816 2.06489563 0.32072449 C4.27937152 0.67034391 6.48656073 1.05351567 8.6953125 1.4375 C10.22922991 1.6861302 11.76349657 1.93261477 13.2980957 2.17700195 C17.10927513 2.7896031 20.91528131 3.42913669 24.72015381 4.07965088 C27.76868116 4.59909393 30.81988587 5.10204389 33.87109375 5.60546875 C36.88526284 6.104525 39.89873834 6.60638519 42.91040039 7.12036133 C49.62000553 8.26409094 56.33301409 9.22604132 63.08984375 10.04296875 C65.8203125 10.4375 65.8203125 10.4375 68.8203125 11.4375 C68.8203125 21.3375 68.8203125 31.2375 68.8203125 41.4375 C68.4903125 41.4375 68.1603125 41.4375 67.8203125 41.4375 C67.3253125 28.5675 67.3253125 28.5675 66.8203125 15.4375 C64.8403125 18.0775 62.8603125 20.7175 60.8203125 23.4375 C49.6542795 34.62236274 34.7678298 38.8650043 19.8203125 42.4375 C19.08554687 42.62658936 18.35078125 42.81567871 17.59375 43.01049805 C9.85690533 44.81678094 2.09529525 44.79276008 -5.8046875 44.75 C-6.51722687 44.74784485 -7.22976624 44.7456897 -7.96389771 44.74346924 C-25.27720461 44.65926694 -45.57123808 42.876159 -60.1796875 32.4375 C-60.1796875 31.7775 -60.1796875 31.1175 -60.1796875 30.4375 C-59.67969238 30.15253662 -59.17969727 29.86757324 -58.66455078 29.57397461 C-47.51217898 23.21538681 -36.37103094 16.83717485 -25.2421875 10.4375 C-24.13568848 9.80320068 -23.02918945 9.16890137 -21.88916016 8.51538086 C-20.31787354 7.61057983 -20.31787354 7.61057983 -18.71484375 6.6875 C-17.7906665 6.15640625 -16.86648926 5.6253125 -15.91430664 5.078125 C-13.07704797 3.44852464 -13.07704797 3.44852464 -10.2824707 1.19921875 C-6.33710864 -1.04090499 -4.43593763 -0.73307947 0 0 Z " fill="#7BB0FD" transform="translate(292.1796875,417.5625)"/>
<path d="M0 0 C1.91582886 0.00845947 1.91582886 0.00845947 3.87036133 0.01708984 C21.28677035 0.24027798 41.33912814 2.75947454 55.8125 13.3125 C52.55915242 16.02271046 49.34024111 18.27494377 45.62890625 20.30859375 C44.62883545 20.86135986 43.62876465 21.41412598 42.59838867 21.98364258 C41.53467041 22.56654053 40.47095215 23.14943848 39.375 23.75 C29.71043327 29.09115007 20.1598764 34.58440604 10.71899414 40.31225586 C9.86684326 40.82409424 9.01469238 41.33593262 8.13671875 41.86328125 C7.39510498 42.31356689 6.65349121 42.76385254 5.8894043 43.2277832 C3.71709305 44.36232874 2.2621753 45.11852313 -0.1875 45.3125 C-2.83105469 44.17944336 -2.83105469 44.17944336 -5.859375 42.40234375 C-6.98794922 41.74830566 -8.11652344 41.09426758 -9.27929688 40.42041016 C-10.49882936 39.6971617 -11.71822747 38.97368661 -12.9375 38.25 C-14.18748851 37.52018568 -15.43814725 36.79151816 -16.68945312 36.06396484 C-19.90011804 34.19364765 -23.10242805 32.30949499 -26.30297852 30.42193604 C-30.37265366 28.0260789 -34.45559683 25.65293017 -38.53613281 23.27563477 C-40.599683 22.07200373 -42.66159904 20.8655656 -44.72167969 19.65600586 C-46.11241699 18.84015015 -46.11241699 18.84015015 -47.53125 18.0078125 C-48.33755859 17.53359863 -49.14386719 17.05938477 -49.97460938 16.57080078 C-52.01550625 15.41029962 -54.07682633 14.3394935 -56.1875 13.3125 C-46.41832058 8.37941082 -36.97289418 4.50118623 -26.1875 2.3125 C-25.3200415 2.13517334 -24.45258301 1.95784668 -23.55883789 1.77514648 C-15.67789676 0.30544155 -8.00592133 -0.03713076 0 0 Z " fill="#FEDC93" transform="translate(285.1875,371.6875)"/>
<path d="M0 0 C3.94578132 1.21543518 7.37506725 2.62238702 10.921875 4.73046875 C11.85185303 5.27864258 12.78183105 5.82681641 13.73999023 6.39160156 C14.73329346 6.98424805 15.72659668 7.57689453 16.75 8.1875 C18.90193077 9.45773115 21.05428973 10.72723712 23.20703125 11.99609375 C24.32158691 12.65464355 25.43614258 13.31319336 26.58447266 13.99169922 C31.078687 16.6342587 35.59298969 19.24057366 40.11669922 21.83227539 C42.32792253 23.10923166 44.52893688 24.40403393 46.71923828 25.71655273 C51.53654055 28.58368018 56.08613463 31.16716833 61.41796875 32.9375 C70.52423031 36.24969552 70.52423031 36.24969552 73 41 C75.06931299 52.5091825 74.02299073 64.41844883 73 76 C65.79971439 72.52285556 58.88075885 68.69371306 52 64.625 C49.88971506 63.38474919 47.77902303 62.14519085 45.66796875 60.90625 C44.03480713 59.9471875 44.03480713 59.9471875 42.36865234 58.96875 C35.65923379 55.04754756 28.91482929 51.18643238 22.16992188 47.32666016 C20.14205884 46.16144876 18.1252378 44.97679329 16.12036133 43.77246094 C12.97143575 41.91544159 12.97143575 41.91544159 9.36987305 40.39160156 C5.60799202 38.5642779 2.89919743 37.02537167 0 34 C-1.58778471 28.08089598 -1.24272418 22.56185246 -0.8125 16.5 C-0.74720913 14.89867259 -0.68790746 13.29708912 -0.63476562 11.6953125 C-0.49223826 7.79050133 -0.26858148 3.89808668 0 0 Z " fill="#77ABFC" transform="translate(372,242)"/>
<path d="M0 0 C3.62806134 1.45122453 6.74228784 2.87544185 10.11328125 4.765625 C11.59610596 5.59549927 11.59610596 5.59549927 13.10888672 6.44213867 C14.1660791 7.03873291 15.22327148 7.63532715 16.3125 8.25 C17.96789795 9.18066284 17.96789795 9.18066284 19.65673828 10.13012695 C25.22839855 13.27255602 30.78325993 16.44244019 36.31640625 19.65234375 C37.32469482 20.23685303 38.3329834 20.8213623 39.37182617 21.42358398 C41.37346956 22.59925047 43.36468126 23.79286114 45.3449707 25.00415039 C50.05531281 27.86255641 54.50799919 30.29610504 59.7265625 32.09375 C70.0469746 35.98171039 70.0469746 35.98171039 73 41 C75.33801391 52.46158508 74.14680517 64.44373256 73 76 C65.09463627 72.15617888 57.43495813 68.04458134 49.875 63.5625 C47.78549329 62.33406195 45.69563647 61.10621927 43.60546875 59.87890625 C42.52958496 59.2461377 41.45370117 58.61336914 40.34521484 57.96142578 C34.64017388 54.61634484 28.91481361 51.30675829 23.1875 48 C22.13353027 47.38970947 21.07956055 46.77941895 19.99365234 46.15063477 C18.97867676 45.56467529 17.96370117 44.97871582 16.91796875 44.375 C15.59962036 43.61316406 15.59962036 43.61316406 14.25463867 42.8359375 C9.53206174 40.17193791 4.76007469 37.59640437 0 35 C0 23.45 0 11.9 0 0 Z " fill="#77ABFC" transform="translate(372,279)"/>
<path d="M0 0 C0 12.54 0 25.08 0 38 C-11.375 44.5625 -11.375 44.5625 -15.17749023 46.75463867 C-20.64979048 49.9096756 -26.12041968 53.0674202 -31.58276367 56.2396698 C-33.38167266 57.28424169 -35.18121594 58.32771216 -36.98095703 59.37084961 C-39.25794886 60.69108028 -41.53369824 62.01345647 -43.80810547 63.33813477 C-44.8395166 63.93553467 -45.87092773 64.53293457 -46.93359375 65.1484375 C-47.84165771 65.67614746 -48.74972168 66.20385742 -49.68530273 66.74755859 C-52 68 -52 68 -55 69 C-55 56.46 -55 43.92 -55 31 C-51.225625 28.89625 -47.45125 26.7925 -43.5625 24.625 C-33.91186224 19.23140621 -24.33163037 13.73800205 -14.82958984 8.08740234 C-11.89149033 6.34116599 -8.947131 4.6059644 -6 2.875 C-5.05125 2.31554687 -4.1025 1.75609375 -3.125 1.1796875 C-1 0 -1 0 0 0 Z " fill="#5692FA" transform="translate(502,290)"/>
<path d="M0 0 C0 12.21 0 24.42 0 37 C-4.08375 39.330625 -8.1675 41.66125 -12.375 44.0625 C-20.13216508 48.49009722 -27.88450925 52.92532511 -35.61328125 57.40234375 C-36.21410522 57.75015396 -36.8149292 58.09796417 -37.43395996 58.45631409 C-40.31943886 60.12700637 -43.20342809 61.80014871 -46.08544922 63.47680664 C-47.11299316 64.07227295 -48.14053711 64.66773926 -49.19921875 65.28125 C-50.10502686 65.80783203 -51.01083496 66.33441406 -51.9440918 66.87695312 C-54 68 -54 68 -55 68 C-55 55.79 -55 43.58 -55 31 C-51.205 28.81375 -47.41 26.6275 -43.5 24.375 C-34.17632791 18.99827168 -24.86197607 13.6059909 -15.5625 8.1875 C-14.54542969 7.59565918 -13.52835937 7.00381836 -12.48046875 6.39404297 C-11.53945313 5.84506348 -10.5984375 5.29608398 -9.62890625 4.73046875 C-8.80463135 4.24989014 -7.98035645 3.76931152 -7.13110352 3.27416992 C-1.65491473 0 -1.65491473 0 0 0 Z " fill="#5692FA" transform="translate(502,251)"/>
<path d="M0 0 C9.053613 5.68775687 16.49778255 13.51698206 20.375 23.5625 C21.75876707 31.17321891 21.00044376 35.99896455 18 43 C9.13247488 42.45008303 0.45409528 41.41942961 -8.30859375 39.96875 C-10.12412498 39.67478333 -10.12412498 39.67478333 -11.97633362 39.37487793 C-15.79756181 38.75495329 -19.61752629 38.12760334 -23.4375 37.5 C-26.02531073 37.07893579 -28.61320077 36.65835867 -31.20117188 36.23828125 C-39.80321142 34.8401493 -48.40404535 33.43511004 -57 32 C-53.43417181 27.85257951 -49.129863 25.70543934 -44.375 23.1875 C-37.07405369 19.24191793 -37.07405369 19.24191793 -30.1875 14.625 C-25.00718559 10.93205579 -19.61719354 7.70335511 -14.125 4.5 C-13.19582764 3.94650879 -12.26665527 3.39301758 -11.30932617 2.82275391 C-10.42607666 2.31405762 -9.54282715 1.80536133 -8.6328125 1.28125 C-7.44002686 0.58612305 -7.44002686 0.58612305 -6.22314453 -0.12304688 C-3.61935845 -1.15014984 -2.56966628 -1.00883955 0 0 Z " fill="#FD90AA" transform="translate(373,381)"/>
<path d="M0 0 C0.33 6.27 0.66 12.54 1 19 C2.98 18.01 4.96 17.02 7 16 C7 17.32 7 18.64 7 20 C6.030625 20.268125 5.06125 20.53625 4.0625 20.8125 C0.77428185 22.65283789 0.77428185 22.65283789 0.37890625 25.6484375 C0.14558779 28.44107996 0.00951418 31.19807297 0 34 C0.78375 33.505 1.5675 33.01 2.375 32.5 C5 31 5 31 7 31 C7 31.99 7 32.98 7 34 C2.77777778 37 2.77777778 37 0 37 C0.33 40.63 0.66 44.26 1 48 C2.98 47.34 4.96 46.68 7 46 C7 46.99 7 47.98 7 49 C6.030625 49.268125 5.06125 49.53625 4.0625 49.8125 C0.77428185 51.65283789 0.77428185 51.65283789 0.37890625 54.6484375 C0.14558779 57.44107996 0.00951418 60.19807297 0 63 C0.78375 62.505 1.5675 62.01 2.375 61.5 C5 60 5 60 7 60 C6.8125 61.8125 6.8125 61.8125 6 64 C5.175 64.350625 4.35 64.70125 3.5 65.0625 C0.75359829 66.75863718 0.75359829 66.75863718 0.44921875 69.6328125 C0.20984023 72.42675289 0.05235477 75.19664008 0 78 C0.78375 77.505 1.5675 77.01 2.375 76.5 C5 75 5 75 7 75 C7 75.99 7 76.98 7 78 C2.77777778 81 2.77777778 81 0 81 C0 84.63 0 88.26 0 92 C2.31 91.01 4.62 90.02 7 89 C6.8125 90.8125 6.8125 90.8125 6 93 C5.175 93.350625 4.35 93.70125 3.5 94.0625 C0.75359829 95.75863718 0.75359829 95.75863718 0.44921875 98.6328125 C0.20984023 101.42675289 0.05235477 104.19664008 0 107 C0.78375 106.505 1.5675 106.01 2.375 105.5 C5 104 5 104 7 104 C6.875 105.875 6.875 105.875 6 108 C2.9375 109.25 2.9375 109.25 0 110 C0.33 113.63 0.66 117.26 1 121 C2.98 120.01 4.96 119.02 7 118 C6.8125 119.8125 6.8125 119.8125 6 122 C5.175 122.350625 4.35 122.70125 3.5 123.0625 C0.75359829 124.75863718 0.75359829 124.75863718 0.44921875 127.6328125 C0.20984023 130.42675289 0.05235477 133.19664008 0 136 C2.31 135.01 4.62 134.02 7 133 C6.6875 134.875 6.6875 134.875 6 137 C3 139 3 139 0 139 C0 143.29 0 147.58 0 152 C18.87136112 141.61919735 18.87136112 141.61919735 37.515625 130.83911133 C43.79194831 127.10951525 50.11137742 123.45691186 56.4375 119.8125 C57.54488525 119.17441406 58.65227051 118.53632813 59.79321289 117.87890625 C62.06369079 116.57093309 64.334281 115.26315487 66.60498047 113.95556641 C72.07169975 110.80667949 77.53577646 107.6532151 83 104.5 C89.52232439 100.73634635 96.04513763 96.97355377 102.5703125 93.21484375 C113.02206199 87.19252671 123.46299548 81.15330663 133.875 75.0625 C143.14499777 69.64078822 152.45831752 64.29795085 161.78845215 58.98077393 C170.89372287 53.79043956 179.96380487 48.54265429 189.00976562 43.24951172 C196.82339995 38.67929756 204.65753913 34.1454963 212.5 29.625 C213.37280609 29.12188797 213.37280609 29.12188797 214.26324463 28.60861206 C217.50836509 26.73826743 220.75396704 24.86876046 224 23 C224.33 23.99 224.66 24.98 225 26 C216.33411041 31.40560578 207.5762783 36.59189984 198.6875 41.625 C196.21129555 43.03219835 193.7363197 44.44154656 191.26171875 45.8515625 C190.64569794 46.20244934 190.02967712 46.55333618 189.39498901 46.91485596 C183.57259607 50.23551853 177.78322638 53.61163061 172 57 C162.77214452 62.40381735 153.50005058 67.72652516 144.20898438 73.02050781 C136.11255867 77.63502804 128.04193491 82.29095255 120 87 C110.77199471 92.4035646 101.5000533 97.72652361 92.20898438 103.02050781 C84.11255867 107.63502804 76.04193491 112.29095255 68 117 C59.36502484 122.05630898 50.6939563 127.04610547 42 132 C21.49561501 143.55586189 21.49561501 143.55586189 1.32788086 155.67456055 C-1 157 -1 157 -3 157 C-3 105.52 -3 54.04 -3 1 C-1 0 -1 0 0 0 Z " fill="#59637B" transform="translate(108,252)"/>
<path d="M0 0 C3.76716237 1.46971074 7.19053264 3.1502078 10.69921875 5.16796875 C11.81321045 5.80653809 12.92720215 6.44510742 14.07495117 7.10302734 C15.27919015 7.79775444 16.48337166 8.49258116 17.6875 9.1875 C18.93776031 9.90601685 20.18816946 10.62427477 21.4387207 11.34228516 C24.66338907 13.19487739 27.88570525 15.05152123 31.10742188 16.90924072 C34.0806805 18.62283415 37.05612888 20.33261104 40.03125 22.04296875 C49.72694361 27.62161142 59.41270601 33.21725556 69.0625 38.875 C69.76528076 39.2860498 70.46806152 39.69709961 71.19213867 40.12060547 C75.87967631 42.87967631 75.87967631 42.87967631 77 44 C77.16003488 46.66426685 77.25942889 49.30560428 77.31640625 51.97265625 C77.33718735 52.77029892 77.35796844 53.56794159 77.37937927 54.38975525 C77.44496158 56.94724611 77.50379967 59.5048428 77.5625 62.0625 C77.60567699 63.79232882 77.64929101 65.52214679 77.69335938 67.25195312 C77.80065172 71.5011926 77.90189426 75.7505389 78 80 C103.07508692 66.0572538 103.07508692 66.0572538 127.68310547 51.31884766 C130 50 130 50 132 50 C130.68596821 53.94209538 129.21143347 54.30057532 125.62109375 56.30078125 C124.48269043 56.94208984 123.34428711 57.58339844 122.17138672 58.24414062 C120.9268314 58.93372658 119.68220084 59.62317675 118.4375 60.3125 C116.53229501 61.38005103 114.62887498 62.45073552 112.72558594 63.521698 C111.42506139 64.25330442 110.12394766 64.98386441 108.82226562 65.71340942 C104.47746845 68.15222278 100.16373745 70.6385633 95.87109375 73.16796875 C94.77418213 73.81403076 93.67727051 74.46009277 92.54711914 75.12573242 C90.46007472 76.35887643 88.37457896 77.59464589 86.29077148 78.83325195 C85.35692627 79.38327881 84.42308105 79.93330566 83.4609375 80.5 C82.64415527 80.9846875 81.82737305 81.469375 80.98583984 81.96875 C79 83 79 83 77 83 C77 95.54 77 108.08 77 121 C73.56745536 119.62698214 71.01931478 118.52192586 67.99609375 116.609375 C67.25423828 116.14660156 66.51238281 115.68382812 65.74804688 115.20703125 C64.2342956 114.25245944 62.72124769 113.2967711 61.20898438 112.33984375 C55.96949697 109.07472113 50.60804871 106.27415503 45.06811523 103.55371094 C40.02448195 100.99958647 35.17657434 98.12767322 30.3125 95.25 C28.76743774 94.34181519 28.76743774 94.34181519 27.19116211 93.4152832 C25.11413801 92.19396916 23.03802888 90.97109759 20.96289062 89.74658203 C18.21318711 88.12567078 15.45930203 86.51221603 12.703125 84.90234375 C11.15619708 83.99748629 9.60931853 83.09254444 8.0625 82.1875 C6.99866089 81.56633301 6.99866089 81.56633301 5.91333008 80.93261719 C1.11458373 78.11458373 1.11458373 78.11458373 0 77 C-0.09496708 74.59651714 -0.12558862 72.22189018 -0.11352539 69.81811523 C-0.11367142 69.06694427 -0.11381744 68.31577332 -0.1139679 67.5418396 C-0.11326863 65.04739541 -0.10547564 62.55302497 -0.09765625 60.05859375 C-0.09579212 58.33366436 -0.09436819 56.60873443 -0.09336853 54.88380432 C-0.08954297 50.33487497 -0.07971238 45.78597733 -0.06866455 41.23706055 C-0.05845124 36.59879994 -0.05387108 31.96053423 -0.04882812 27.32226562 C-0.03809014 18.21482978 -0.02101327 9.10741752 0 0 Z M2 4 C1.6765122 8.69497556 1.4419366 13.3833894 1.28588867 18.08691406 C1.22083336 19.68246408 1.13233684 21.27724814 1.01928711 22.87011719 C0.65321295 28.16411273 0.62100086 32.84433 2 38 C5.28287349 41.44780639 8.83641892 43.28445469 13.17770386 45.17572021 C16.07115396 46.48451541 18.75256595 48.1334152 21.48046875 49.75390625 C23.71495304 51.02553575 25.95066806 52.29500465 28.1875 53.5625 C30.63215397 54.95199493 33.07588171 56.34311453 35.51953125 57.734375 C36.13550171 58.08482376 36.75147217 58.43527252 37.3861084 58.79634094 C41.72930251 61.26952508 46.06122709 63.7616219 50.38671875 66.265625 C50.97891708 66.60830917 51.57111542 66.95099335 52.18125916 67.30406189 C55.00523337 68.93877849 57.82791399 70.57568386 60.64916992 72.21508789 C61.65955322 72.8002417 62.66993652 73.38539551 63.7109375 73.98828125 C64.59056152 74.49915283 65.47018555 75.01002441 66.37646484 75.53637695 C69.20310225 77.11330709 72.10495766 78.55247883 75 80 C75 68.45 75 56.9 75 45 C71.205 42.81375 67.41 40.6275 63.5 38.375 C54.54687636 33.21389409 45.60879236 28.02847736 36.6875 22.8125 C28.8431382 18.23304662 20.99501631 13.66025213 13.125 9.125 C12.23256592 8.60655518 11.34013184 8.08811035 10.4206543 7.55395508 C9.6037915 7.08497803 8.78692871 6.61600098 7.9453125 6.1328125 C7.22875488 5.71918457 6.51219727 5.30555664 5.77392578 4.87939453 C4.03133904 3.85194901 4.03133904 3.85194901 2 4 Z M2 41 C2 52.55 2 64.1 2 76 C5.279375 77.77375 8.55875 79.5475 11.9375 81.375 C19.44194272 85.45593748 26.87879009 89.62089223 34.22216797 93.984375 C40.39677804 97.6533251 46.60083551 101.27035636 52.81848145 104.86581421 C54.51905406 105.84985977 56.21804466 106.8366377 57.91699219 107.82348633 C58.97692383 108.43603271 60.03685547 109.0485791 61.12890625 109.6796875 C62.53765015 110.49542236 62.53765015 110.49542236 63.97485352 111.32763672 C67.59187095 113.32719845 71.30340024 115.15170012 75 117 C75 105.45 75 93.9 75 82 C70.91625 79.669375 66.8325 77.33875 62.625 74.9375 C52.84429934 69.35042092 43.07093853 63.75089758 33.3125 58.125 C32.24402832 57.50931152 31.17555664 56.89362305 30.07470703 56.25927734 C25.2571237 53.47809224 20.44927753 50.68300358 15.66796875 47.83984375 C14.47143677 47.12900635 14.47143677 47.12900635 13.25073242 46.40380859 C11.79657664 45.5372144 10.34473906 44.66671296 8.89575195 43.79150391 C5.6734325 41.69543711 5.6734325 41.69543711 2 41 Z " fill="#3D58D2" transform="translate(370,238)"/>
<path d="M0 0 C1.70557623 2.55836435 2.8279944 4.83740672 4.0625 7.625 C7.08183068 13.72600743 11.70264438 19.60551961 17.74906921 22.97457886 C20.54422929 24.59439945 22.63172132 25.80946154 23.61602783 28.99143982 C23.81023238 31.43523571 23.78780669 33.78895039 23.68359375 36.23828125 C23.67368912 37.11904831 23.66378448 37.99981537 23.65357971 38.90727234 C23.61450214 41.7107345 23.52670142 44.51022907 23.4375 47.3125 C23.40237717 49.21674018 23.37043985 51.12104196 23.34179688 53.02539062 C23.26476274 57.68511424 23.14403277 62.34188539 23 67 C13.16056625 61.4498446 3.83648768 54.50076471 0.43873596 43.12005615 C-0.01199191 40.94205278 -0.12038356 39.00427287 -0.11352539 36.78222656 C-0.11344986 35.96167786 -0.11337433 35.14112915 -0.11329651 34.29571533 C-0.10813522 33.41953552 -0.10297394 32.54335571 -0.09765625 31.640625 C-0.0962413 30.73624695 -0.09482635 29.8318689 -0.09336853 28.90008545 C-0.08777911 26.01668973 -0.07522853 23.13337218 -0.0625 20.25 C-0.05748363 18.29296987 -0.05292096 16.33593853 -0.04882812 14.37890625 C-0.03781313 9.58590747 -0.02055574 4.79296698 0 0 Z " fill="#5FAF5F" transform="translate(208,422)"/>
<path d="M0 0 C0.33 6.27 0.66 12.54 1 19 C2.98 18.01 4.96 17.02 7 16 C7 17.32 7 18.64 7 20 C6.030625 20.268125 5.06125 20.53625 4.0625 20.8125 C0.77428185 22.65283789 0.77428185 22.65283789 0.37890625 25.6484375 C0.14558779 28.44107996 0.00951418 31.19807297 0 34 C0.78375 33.505 1.5675 33.01 2.375 32.5 C5 31 5 31 7 31 C7 31.99 7 32.98 7 34 C2.77777778 37 2.77777778 37 0 37 C0.33 40.63 0.66 44.26 1 48 C2.98 47.34 4.96 46.68 7 46 C7 46.99 7 47.98 7 49 C6.030625 49.268125 5.06125 49.53625 4.0625 49.8125 C0.77428185 51.65283789 0.77428185 51.65283789 0.37890625 54.6484375 C0.14558779 57.44107996 0.00951418 60.19807297 0 63 C0.78375 62.505 1.5675 62.01 2.375 61.5 C5 60 5 60 7 60 C6.8125 61.8125 6.8125 61.8125 6 64 C5.175 64.350625 4.35 64.70125 3.5 65.0625 C0.75359829 66.75863718 0.75359829 66.75863718 0.44921875 69.6328125 C0.20984023 72.42675289 0.05235477 75.19664008 0 78 C0.78375 77.505 1.5675 77.01 2.375 76.5 C5 75 5 75 7 75 C7 75.99 7 76.98 7 78 C2.77777778 81 2.77777778 81 0 81 C0 84.63 0 88.26 0 92 C2.31 91.01 4.62 90.02 7 89 C6.8125 90.8125 6.8125 90.8125 6 93 C5.175 93.350625 4.35 93.70125 3.5 94.0625 C0.75359829 95.75863718 0.75359829 95.75863718 0.44921875 98.6328125 C0.20984023 101.42675289 0.05235477 104.19664008 0 107 C0.78375 106.505 1.5675 106.01 2.375 105.5 C5 104 5 104 7 104 C6.875 105.875 6.875 105.875 6 108 C2.9375 109.25 2.9375 109.25 0 110 C0.33 113.63 0.66 117.26 1 121 C2.98 120.01 4.96 119.02 7 118 C6.8125 119.8125 6.8125 119.8125 6 122 C5.175 122.350625 4.35 122.70125 3.5 123.0625 C0.75359829 124.75863718 0.75359829 124.75863718 0.44921875 127.6328125 C0.20984023 130.42675289 0.05235477 133.19664008 0 136 C2.31 135.01 4.62 134.02 7 133 C6.6875 134.875 6.6875 134.875 6 137 C3 139 3 139 0 139 C0 143.29 0 147.58 0 152 C0.66 152.33 1.32 152.66 2 153 C1.67 153.99 1.34 154.98 1 156 C-0.32 156.33 -1.64 156.66 -3 157 C-3 105.52 -3 54.04 -3 1 C-1 0 -1 0 0 0 Z " fill="#626B84" transform="translate(108,252)"/>
<path d="M0 0 C0.74236054 4.20023187 0.99760957 7.82794061 0 12 C-3.47681364 15.33318134 -7.58725513 17.1330846 -11.9375 19.125 C-19.94026234 22.32081068 -19.94026234 22.32081068 -24.97705078 28.65527344 C-25.22916289 31.18173025 -25.26607136 33.47849142 -25 36 C-34.78362364 35.31728282 -44.34992881 33.68796625 -54 32 C-54 31.34 -54 30.68 -54 30 C-53.42894531 29.67950684 -52.85789062 29.35901367 -52.26953125 29.02880859 C-28.06972034 15.55438681 -28.06972034 15.55438681 -4.31689453 1.31884766 C-2 0 -2 0 0 0 Z " fill="#EDA146" transform="translate(341,386)"/>
<path d="M0 0 C0.41403073 3.09393875 0.56121616 5.91791123 0 9 C-2.41198789 11.18355449 -4.02915533 12.24894812 -6.875 13.625 C-8.42012337 14.45022865 -9.96433183 15.27717172 -11.5078125 16.10546875 C-12.37051758 16.5545459 -13.23322266 17.00362305 -14.12207031 17.46630859 C-19.15937786 20.15076448 -24.0734971 23.05187935 -29.00543213 25.92376709 C-31.80558465 27.55087877 -34.61430943 29.16306744 -37.421875 30.77734375 C-40.21562876 32.38377573 -42.99029166 33.99393533 -45.72363281 35.70141602 C-48 37 -48 37 -50 37 C-50 34.03 -50 31.06 -50 28 C-48.20442708 26.97395833 -46.40885417 25.94791667 -44.61328125 24.921875 C-44.04798706 24.59882385 -43.48269287 24.27577271 -42.90026855 23.94293213 C-39.76342091 22.15034101 -36.6263869 20.35807737 -33.48901367 18.56640625 C-27.48884119 15.13944575 -21.49044763 11.70957149 -15.5 8.265625 C-14.53280029 7.71036133 -13.56560059 7.15509766 -12.5690918 6.58300781 C-10.75705919 5.5424251 -8.94599361 4.50015631 -7.13598633 3.45605469 C-6.33443115 2.99618164 -5.53287598 2.53630859 -4.70703125 2.0625 C-3.66252808 1.46115234 -3.66252808 1.46115234 -2.59692383 0.84765625 C-1 0 -1 0 0 0 Z " fill="#EC6174" transform="translate(92,239)"/>
<path d="M0 0 C0 2.97 0 5.94 0 9 C-0.79583496 9.4532666 -1.59166992 9.9065332 -2.41162109 10.37353516 C-5.41278907 12.08356885 -8.41336742 13.79462857 -11.41357422 15.50634766 C-12.70305919 16.24177461 -13.99276634 16.97681216 -15.28271484 17.71142578 C-17.15523402 18.77790329 -19.0270261 19.8456424 -20.8984375 20.9140625 C-21.50814392 21.26180725 -22.11785034 21.609552 -22.74603271 21.96783447 C-27.26218915 24.5531252 -31.71413697 27.23142113 -36.13134766 29.98193359 C-38 31 -38 31 -40 31 C-40 28.03 -40 25.06 -40 22 C-39.20416504 21.5467334 -38.40833008 21.0934668 -37.58837891 20.62646484 C-34.58721093 18.91643115 -31.58663258 17.20537143 -28.58642578 15.49365234 C-27.29694081 14.75822539 -26.00723366 14.02318784 -24.71728516 13.28857422 C-22.84476598 12.22209671 -20.9729739 11.1543576 -19.1015625 10.0859375 C-18.49185608 9.73819275 -17.88214966 9.390448 -17.25396729 9.03216553 C-12.73781085 6.4468748 -8.28586303 3.76857887 -3.86865234 1.01806641 C-2 0 -2 0 0 0 Z " fill="#FDBC65" transform="translate(82,276)"/>
<path d="M0 0 C0.76243722 3.22792716 0.93052163 5.79338688 0 9 C-3.40204401 12.19294048 -7.37727396 14.17683203 -11.5 16.3125 C-12.57765625 16.90611328 -13.6553125 17.49972656 -14.765625 18.11132812 C-20.43943634 21.21462616 -26.1965669 24.14758446 -32 27 C-32.73706745 23.66331158 -33.05992755 21.32006718 -32 18 C-28.69890773 15.0862808 -24.95091617 13.13982844 -21.07226562 11.11376953 C-18.81270803 9.89933719 -16.61891986 8.60138149 -14.421875 7.27734375 C-13.65673584 6.81642334 -12.89159668 6.35550293 -12.10327148 5.88061523 C-11.34731689 5.42501221 -10.5913623 4.96940918 -9.8125 4.5 C-2.32063008 0 -2.32063008 0 0 0 Z " fill="#5C96FA" transform="translate(74,265)"/>
<path d="M0 0 C2.3125 0.9375 2.3125 0.9375 4.3125 3.9375 C4.06356603 10.40978321 1.94888545 15.21323503 -2.5625 19.875 C-5.45191441 21.31970721 -7.5050708 21.35259946 -10.6875 20.9375 C-13.08001268 17.34873098 -13.24717086 16.17500792 -12.6875 11.9375 C-10.2234858 6.65310591 -6.4601187 -0.15023532 0 0 Z " fill="#FEF8F9" transform="translate(309.6875,60.0625)"/>
<path d="M0 0 C2.3125 0.875 2.3125 0.875 4.3125 2.875 C4.66991536 8.83192267 3.06424244 13.24049463 -0.6875 17.875 C-1.120625 18.49375 -1.55375 19.1125 -2 19.75 C-4.77839939 21.60226626 -7.46127005 21.11398 -10.6875 20.875 C-12.31859367 19.24390633 -11.93622283 17.43312778 -12 15.1875 C-11.92803374 8.88145664 -9.6461569 5.8336569 -5.25 1.4375 C-2.6875 -0.125 -2.6875 -0.125 0 0 Z " fill="#FEF9FA" transform="translate(281.6875,76.125)"/>
<path d="M0 0 C2.1875 0.875 2.1875 0.875 3.1875 1.875 C4.12896716 8.02143561 3.00925 12.13996622 -0.42578125 17.24609375 C-2.70247478 19.92040699 -4.39305606 20.8321996 -7.875 21.1875 C-8.844375 21.084375 -9.81375 20.98125 -10.8125 20.875 C-13.31554378 17.12043433 -13.26530074 15.32754066 -12.8125 10.875 C-10.26412631 5.97428136 -6.04369011 -0.26860845 0 0 Z " fill="#FEFAFA" transform="translate(337.8125,44.125)"/>
<path d="M0 0 C0.7988911 3.24157386 0.96751981 5.78063645 0 9 C-3.55476152 12.2703806 -7.67027999 14.34566835 -11.9375 16.5625 C-13.07380859 17.18962891 -14.21011719 17.81675781 -15.38085938 18.46289062 C-23.66838195 23 -23.66838195 23 -25 23 C-25.88671745 19.72596635 -26.06568455 17.24756001 -25 14 C-21.55369084 11.06190233 -17.73875077 8.99828675 -13.74072266 6.92431641 C-11.18975279 5.56976214 -8.76072035 4.03058578 -6.3125 2.5 C-2.25 0 -2.25 0 0 0 Z " fill="#7ACB7A" transform="translate(67,300)"/>
<path d="M0 0 C0.33 0 0.66 0 1 0 C1.04963288 5.56842771 1.08582963 11.13672511 1.10986328 16.70532227 C1.11988815 18.59759771 1.13351155 20.48985778 1.15087891 22.38208008 C1.17528222 25.1102275 1.18651845 27.83816915 1.1953125 30.56640625 C1.20563507 31.40522842 1.21595764 32.2440506 1.22659302 33.10829163 C1.22754087 38.1298712 0.61591021 42.23893583 -1 47 C-1.33 47 -1.66 47 -2 47 C-2.04956675 41.27084606 -2.08579861 35.54181793 -2.10986328 29.8125 C-2.11989919 27.86488672 -2.13353088 25.91728843 -2.15087891 23.96972656 C-2.17523328 21.16467583 -2.18650737 18.35982495 -2.1953125 15.5546875 C-2.20563507 14.68883026 -2.21595764 13.82297302 -2.22659302 12.93087769 C-2.22746211 8.21097121 -1.82472246 4.43868475 0 0 Z " fill="#D3374F" transform="translate(393,416)"/>
<path d="M0 0 C0.66 0.33 1.32 0.66 2 1 C1.25 6.75 1.25 6.75 -1 9 C-1.99 9 -2.98 9 -4 9 C-4.25 6.1875 -4.25 6.1875 -4 3 C-2 1.125 -2 1.125 0 0 Z " fill="#272E3A" transform="translate(478,408)"/>
<path d="M0 0 C4.875 0.875 4.875 0.875 6 2 C6.04080783 3.99958364 6.04254356 6.00045254 6 8 C4.125 7.6875 4.125 7.6875 2 7 C0 4 0 4 0 0 Z " fill="#F1D89F" transform="translate(378,291)"/>
<path d="M0 0 C4.875 0.875 4.875 0.875 6 2 C6.04063832 3.66617115 6.042721 5.33388095 6 7 C4.35 6.67 2.7 6.34 1 6 C0.67 4.02 0.34 2.04 0 0 Z " fill="#E5627A" transform="translate(378,304)"/>
<path d="M0 0 C2.86724686 0.57344937 3.8614515 0.8614515 6 3 C6.125 5.625 6.125 5.625 6 8 C4.125 7.6875 4.125 7.6875 2 7 C0 4 0 4 0 0 Z " fill="#E76178" transform="translate(378,267)"/>
<path d="M0 0 C3.875 1.875 3.875 1.875 5 3 C5.04063832 4.66617115 5.042721 6.33388095 5 8 C3.125 7.6875 3.125 7.6875 1 7 C-1 4 -1 4 -0.625 1.8125 C-0.41875 1.214375 -0.2125 0.61625 0 0 Z " fill="#F9DB98" transform="translate(379,254)"/>
<path d="M0 0 C2.475 0.99 2.475 0.99 5 2 C5 3.65 5 5.3 5 7 C2.525 6.01 2.525 6.01 0 5 C0 3.35 0 1.7 0 0 Z " fill="#4462D7" transform="translate(403,323)"/>
<path d="M0 0 C1.65 0 3.3 0 5 0 C5 4.29 5 8.58 5 13 C4.67 13 4.34 13 4 13 C4 10.03 4 7.06 4 4 C2.68 3.67 1.36 3.34 0 3 C0 2.01 0 1.02 0 0 Z " fill="#75A9FB" transform="translate(440,305)"/>
<path d="M0 0 C2.475 0.99 2.475 0.99 5 2 C5 3.65 5 5.3 5 7 C2.525 6.01 2.525 6.01 0 5 C0 3.35 0 1.7 0 0 Z " fill="#4361D7" transform="translate(403,271)"/>
<path d="M0 0 C2.475 0.99 2.475 0.99 5 2 C5 3.65 5 5.3 5 7 C2.525 6.01 2.525 6.01 0 5 C0 3.35 0 1.7 0 0 Z " fill="#3F5BD4" transform="translate(429,338)"/>
<path d="M0 0 C2.475 0.99 2.475 0.99 5 2 C5 3.65 5 5.3 5 7 C2.525 6.01 2.525 6.01 0 5 C0 3.35 0 1.7 0 0 Z " fill="#415ED5" transform="translate(438,335)"/>
<path d="M0 0 C2.475 0.99 2.475 0.99 5 2 C5 3.65 5 5.3 5 7 C2.525 6.01 2.525 6.01 0 5 C0 3.35 0 1.7 0 0 Z " fill="#415DD5" transform="translate(438,320)"/>
<path d="M0 0 C2.475 0.99 2.475 0.99 5 2 C5 3.65 5 5.3 5 7 C2.525 6.01 2.525 6.01 0 5 C0 3.35 0 1.7 0 0 Z " fill="#4462D7" transform="translate(411,320)"/>
<path d="M0 0 C2.475 0.99 2.475 0.99 5 2 C5 3.65 5 5.3 5 7 C2.525 6.01 2.525 6.01 0 5 C0 3.35 0 1.7 0 0 Z " fill="#425FD6" transform="translate(420,317)"/>
<path d="M0 0 C2.475 0.99 2.475 0.99 5 2 C5 3.65 5 5.3 5 7 C2.525 6.01 2.525 6.01 0 5 C0 3.35 0 1.7 0 0 Z " fill="#405CD4" transform="translate(394,310)"/>
<path d="M0 0 C2.475 0.99 2.475 0.99 5 2 C5 3.65 5 5.3 5 7 C2.525 6.01 2.525 6.01 0 5 C0 3.35 0 1.7 0 0 Z " fill="#415ED5" transform="translate(420,296)"/>
<path d="M0 0 C2.475 0.99 2.475 0.99 5 2 C5 3.65 5 5.3 5 7 C2.525 6.01 2.525 6.01 0 5 C0 3.35 0 1.7 0 0 Z " fill="#415DD5" transform="translate(438,291)"/>
<path d="M0 0 C2.475 0.99 2.475 0.99 5 2 C5 3.65 5 5.3 5 7 C2.525 6.01 2.525 6.01 0 5 C0 3.35 0 1.7 0 0 Z " fill="#3F5AD3" transform="translate(429,286)"/>
<path d="M0 0 C2.475 0.99 2.475 0.99 5 2 C5 3.65 5 5.3 5 7 C2.525 6.01 2.525 6.01 0 5 C0 3.35 0 1.7 0 0 Z " fill="#415DD5" transform="translate(438,343)"/>
<path d="M0 0 C2.475 0.99 2.475 0.99 5 2 C5 3.65 5 5.3 5 7 C2.525 6.01 2.525 6.01 0 5 C0 3.35 0 1.7 0 0 Z " fill="#3E59D3" transform="translate(429,330)"/>
<path d="M0 0 C2.475 0.99 2.475 0.99 5 2 C5 3.65 5 5.3 5 7 C2.525 6.01 2.525 6.01 0 5 C0 3.35 0 1.7 0 0 Z " fill="#405DD4" transform="translate(420,325)"/>
<path d="M0 0 C2.5 1.25 2.5 1.25 5 3 C5 4.32 5 5.64 5 7 C2.525 6.01 2.525 6.01 0 5 C0 3.35 0 1.7 0 0 Z " fill="#3E58D2" transform="translate(429,322)"/>
<path d="M0 0 C2.475 0.99 2.475 0.99 5 2 C5 3.65 5 5.3 5 7 C2.5 5.75 2.5 5.75 0 4 C0 2.68 0 1.36 0 0 Z " fill="#3E59D3" transform="translate(429,315)"/>
<path d="M0 0 C2.475 0.99 2.475 0.99 5 2 C5 3.65 5 5.3 5 7 C2.525 6.01 2.525 6.01 0 5 C0 3.35 0 1.7 0 0 Z " fill="#415ED5" transform="translate(403,315)"/>
<path d="M0 0 C2.5 1.25 2.5 1.25 5 3 C5 4.32 5 5.64 5 7 C2.525 6.01 2.525 6.01 0 5 C0 3.35 0 1.7 0 0 Z " fill="#405DD4" transform="translate(403,307)"/>
<path d="M0 0 C2.475 0.99 2.475 0.99 5 2 C5 3.65 5 5.3 5 7 C2.525 6.01 2.525 6.01 0 5 C0 3.35 0 1.7 0 0 Z " fill="#3E59D3" transform="translate(394,302)"/>
<path d="M0 0 C2.5 1.25 2.5 1.25 5 3 C5 4.32 5 5.64 5 7 C2.525 6.01 2.525 6.01 0 5 C0 3.35 0 1.7 0 0 Z " fill="#3E59D3" transform="translate(429,301)"/>
<path d="M0 0 C2.475 0.99 2.475 0.99 5 2 C5 3.65 5 5.3 5 7 C2.5 5.75 2.5 5.75 0 4 C0 2.68 0 1.36 0 0 Z " fill="#415ED5" transform="translate(403,300)"/>
<path d="M0 0 C2.475 0.99 2.475 0.99 5 2 C5 3.65 5 5.3 5 7 C2.5 5.75 2.5 5.75 0 4 C0 2.68 0 1.36 0 0 Z " fill="#405CD5" transform="translate(438,299)"/>
<path d="M0 0 C2.475 0.99 2.475 0.99 5 2 C5 3.65 5 5.3 5 7 C2.525 6.01 2.525 6.01 0 5 C0 3.35 0 1.7 0 0 Z " fill="#4360D6" transform="translate(411,291)"/>
<path d="M0 0 C2.5 1.25 2.5 1.25 5 3 C5 4.32 5 5.64 5 7 C2.525 6.01 2.525 6.01 0 5 C0 3.35 0 1.7 0 0 Z " fill="#415DD5" transform="translate(420,288)"/>
<path d="M0 0 C2.475 0.99 2.475 0.99 5 2 C5 3.65 5 5.3 5 7 C2.525 6.01 2.525 6.01 0 5 C0 3.35 0 1.7 0 0 Z " fill="#425ED5" transform="translate(403,286)"/>
<path d="M0 0 C2.5 1.25 2.5 1.25 5 3 C5 4.32 5 5.64 5 7 C2.525 6.01 2.525 6.01 0 5 C0 3.35 0 1.7 0 0 Z " fill="#405BD4" transform="translate(438,283)"/>
<path d="M0 0 C2.475 0.99 2.475 0.99 5 2 C5 3.65 5 5.3 5 7 C2.5 5.75 2.5 5.75 0 4 C0 2.68 0 1.36 0 0 Z " fill="#405DD4" transform="translate(420,281)"/>
<path d="M0 0 C2.475 0.99 2.475 0.99 5 2 C5 3.65 5 5.3 5 7 C2.525 6.01 2.525 6.01 0 5 C0 3.35 0 1.7 0 0 Z " fill="#3F5BD4" transform="translate(394,281)"/>
<path d="M0 0 C2.475 0.99 2.475 0.99 5 2 C5 3.65 5 5.3 5 7 C2.525 6.01 2.525 6.01 0 5 C0 3.35 0 1.7 0 0 Z " fill="#3E59D3" transform="translate(429,278)"/>
<path d="M0 0 C2.475 0.99 2.475 0.99 5 2 C5 3.65 5 5.3 5 7 C2.525 6.01 2.525 6.01 0 5 C0 3.35 0 1.7 0 0 Z " fill="#415DD5" transform="translate(420,273)"/>
<path d="M0 0 C2.5 1.25 2.5 1.25 5 3 C5 4.32 5 5.64 5 7 C2.525 6.01 2.525 6.01 0 5 C0 3.35 0 1.7 0 0 Z " fill="#3F5AD3" transform="translate(394,273)"/>
<path d="M0 0 C2.475 0.99 2.475 0.99 5 2 C5 3.65 5 5.3 5 7 C2.5 5.75 2.5 5.75 0 4 C0 2.68 0 1.36 0 0 Z " fill="#3F5AD3" transform="translate(394,266)"/>
<path d="M0 0 C2.475 0.99 2.475 0.99 5 2 C5 3.65 5 5.3 5 7 C2.525 6.01 2.525 6.01 0 5 C0 3.35 0 1.7 0 0 Z " fill="#415DD5" transform="translate(403,263)"/>
<path d="M0 0 C2.475 0.99 2.475 0.99 5 2 C5 3.65 5 5.3 5 7 C2.525 6.01 2.525 6.01 0 5 C0 3.35 0 1.7 0 0 Z " fill="#3E59D3" transform="translate(394,258)"/>
<path d="M0 0 C2.475 0.99 2.475 0.99 5 2 C5 3.65 5 5.3 5 7 C2.5 5.75 2.5 5.75 0 4 C0 2.68 0 1.36 0 0 Z " fill="#3F5AD3" transform="translate(420,333)"/>
<path d="M0 0 C2.475 0.99 2.475 0.99 5 2 C5 3.65 5 5.3 5 7 C2.5 5.75 2.5 5.75 0 4 C0 2.68 0 1.36 0 0 Z " fill="#3F5AD4" transform="translate(438,328)"/>
<path d="M0 0 C2.475 0.99 2.475 0.99 5 2 C5 3.65 5 5.3 5 7 C2.5 5.75 2.5 5.75 0 4 C0 2.68 0 1.36 0 0 Z " fill="#3E59D3" transform="translate(394,318)"/>
<path d="M0 0 C2.5 1.25 2.5 1.25 5 3 C5 4.32 5 5.64 5 7 C2.525 6.01 2.525 6.01 0 5 C0 3.35 0 1.7 0 0 Z " fill="#3F5BD4" transform="translate(438,306)"/>
<path d="M0 0 C2.475 0.99 2.475 0.99 5 2 C5 3.65 5 5.3 5 7 C2.5 5.75 2.5 5.75 0 4 C0 2.68 0 1.36 0 0 Z " fill="#3D57D2" transform="translate(429,294)"/>
<path d="M0 0 C2.5 1.25 2.5 1.25 5 3 C5 4.32 5 5.64 5 7 C2.525 6.01 2.525 6.01 0 5 C0 3.35 0 1.7 0 0 Z " fill="#3D58D2" transform="translate(394,294)"/>
<path d="M0 0 C1.32 0.33 2.64 0.66 4 1 C4.33 2.65 4.66 4.3 5 6 C2.525 5.01 2.525 5.01 0 4 C0 2.68 0 1.36 0 0 Z " fill="#425FD6" transform="translate(411,276)"/>
<path d="M0 0 C2.475 0.99 2.475 0.99 5 2 C5 3.32 5 4.64 5 6 C2.525 5.01 2.525 5.01 0 4 C0 2.68 0 1.36 0 0 Z " fill="#405DD5" transform="translate(411,328)"/>
<path d="M0 0 C2.475 0.99 2.475 0.99 5 2 C5 3.32 5 4.64 5 6 C2.525 5.01 2.525 5.01 0 4 C0 2.68 0 1.36 0 0 Z " fill="#3F5AD3" transform="translate(420,310)"/>
<path d="M0 0 C2.475 0.99 2.475 0.99 5 2 C5 3.32 5 4.64 5 6 C2.525 5.01 2.525 5.01 0 4 C0 2.68 0 1.36 0 0 Z " fill="#3F5BD3" transform="translate(403,279)"/>
<path d="M0 0 C0.33 0.99 0.66 1.98 1 3 C-2.75 6 -2.75 6 -5 6 C-5.33 5.01 -5.66 4.02 -6 3 C-4.02 2.01 -2.04 1.02 0 0 Z " fill="#5C667F" transform="translate(114,385)"/>
<path d="M0 0 C1.32 0.33 2.64 0.66 4 1 C4 2.65 4 4.3 4 6 C2.68 5.67 1.36 5.34 0 5 C0 3.35 0 1.7 0 0 Z " fill="#3F5AD3" transform="translate(412,305)"/>
<path d="M0 0 C1.98 0.99 1.98 0.99 4 2 C4 3.65 4 5.3 4 7 C2.68 6.34 1.36 5.68 0 5 C0 3.35 0 1.7 0 0 Z " fill="#3E59D3" transform="translate(412,268)"/>
<path d="M0 0 C1.32 0.33 2.64 0.66 4 1 C4 2.65 4 4.3 4 6 C2.68 5.34 1.36 4.68 0 4 C0 2.68 0 1.36 0 0 Z " fill="#3D58D2" transform="translate(412,284)"/>
<path d="M0 0 C1.32 0.33 2.64 0.66 4 1 C4 2.65 4 4.3 4 6 C2.68 5.34 1.36 4.68 0 4 C0 2.68 0 1.36 0 0 Z " fill="#3B55D1" transform="translate(412,313)"/>
<path d="M0 0 C0 0.99 0 1.98 0 3 C-1.98 3.99 -3.96 4.98 -6 6 C-5.6875 4.125 -5.6875 4.125 -5 2 C-2 0 -2 0 0 0 Z " fill="#606A82" transform="translate(115,283)"/>
</svg>
